<?xml version="1.0" encoding="UTF-8"?>
<svg id="Layer_2" data-name="Layer 2" xmlns="http://www.w3.org/2000/svg" viewBox="0 0 70.3 72.81">
  <defs>
    <style>
      .cls-1 {
        fill: #fbde92;
        stroke: #130711;
        stroke-linecap: round;
        stroke-linejoin: round;
        stroke-width: 7px;
      }
    </style>
  </defs>
  <g id="Layer_1-2" data-name="Layer 1">
    <path class="cls-1" d="M46.08,6.7l2.07,16.47c.15,1.19.87,2.23,1.94,2.78l14.74,7.63c2.68,1.39,2.61,5.25-.13,6.54l-15.02,7.05c-1.09.51-1.85,1.52-2.05,2.71l-2.71,16.38c-.49,2.98-4.19,4.1-6.26,1.9l-11.35-12.11c-.82-.88-2.02-1.29-3.21-1.11l-16.41,2.49c-2.99.45-5.2-2.72-3.74-5.36l8.01-14.54c.58-1.05.6-2.32.07-3.39l-7.44-14.84c-1.35-2.7.98-5.78,3.94-5.21l16.3,3.12c1.18.23,2.39-.14,3.25-.99l11.81-11.66c2.15-2.12,5.8-.86,6.18,2.14Z"/>
  </g>
</svg>