<?xml version="1.0" encoding="UTF-8"?>
<svg id="Layer_2" data-name="Layer 2" xmlns="http://www.w3.org/2000/svg" viewBox="0 0 95.61 59.15">
  <defs>
    <style>
      .cls-1 {
        fill: #fff;
      }

      .cls-1, .cls-2 {
        stroke-linecap: round;
        stroke-linejoin: round;
      }

      .cls-1, .cls-2, .cls-3 {
        stroke: #130711;
      }

      .cls-4 {
        fill: #130711;
      }

      .cls-2, .cls-3 {
        fill: #8d6c87;
        stroke-width: 2px;
      }

      .cls-3 {
        stroke-miterlimit: 10;
      }
    </style>
  </defs>
  <g id="Layer_1-2" data-name="Layer 1">
    <g>
      <path class="cls-3" d="M1.95,58.15s-4.27-16.23,5.31-21.4c9.59-5.17,25.48.86,25.48.86l6.54-13.36,15.36,1.15s-4.85,22.84-16.21,24.13c-11.36,1.29-22.99-5.74-22.85.57s.72,8.04.72,8.04H1.95Z"/>
      <path class="cls-2" d="M33.62,20.67L46.57,1.94c.93-1.34,2.95-1.23,3.72.21l10.79,20.05c.81,1.5-.34,3.31-2.05,3.22l-23.74-1.32c-1.7-.09-2.65-2.02-1.68-3.42Z"/>
      <g>
        <path class="cls-1" d="M54.65,26.18s11.95,5.16,19.57-.73,12.13-9.59,17.77-5.79c5.4,3.63,3.3,10.96-2.54,16.02-3.68,3.19-12.38,7.79-20.53,2.15-8.16-5.64-14.27-11.65-14.27-11.65Z"/>
        <g>
          <circle class="cls-4" cx="90.5" cy="28.27" r="1.82"/>
          <circle class="cls-4" cx="86.5" cy="23.7" r="1.82"/>
          <ellipse class="cls-4" cx="82.97" cy="30.92" rx="5.59" ry="1.82" transform="translate(.16 62.27) rotate(-41.17)"/>
        </g>
      </g>
    </g>
  </g>
</svg>