<?xml version="1.0" encoding="UTF-8"?>
<svg id="Layer_2" data-name="Layer 2" xmlns="http://www.w3.org/2000/svg" viewBox="0 0 46.9 37.96">
  <defs>
    <style>
      .cls-1 {
        stroke-linecap: round;
        stroke-linejoin: round;
      }

      .cls-1, .cls-2, .cls-3 {
        stroke: #130711;
      }

      .cls-1, .cls-3 {
        fill: #fff;
      }

      .cls-4 {
        fill: #130711;
      }

      .cls-2 {
        fill: #b071da;
      }

      .cls-2, .cls-3 {
        stroke-miterlimit: 10;
      }
    </style>
  </defs>
  <g id="Layer_1-2" data-name="Layer 1">
    <g>
      <g>
        <path class="cls-3" d="M36.4,21.08c.02-2.8-2.71-2.84-4.63-2.53.24-.78.46-1.46.63-1.98.79-2.44,2.06-11.68-5.19-14.89-6.6-2.92-12.77.22-15.08,2.64-1.55,1.62-2.32,5.97-2.72,9.25-1.34-1.08-3.1-1.81-4.43.07-2.14,3.01,2.29,5.21,3.59,5.77-.65,2.19-2.05,4.95-4.74,6.13-3.77,1.66-4.31,4.34-1.81,5.56s6.8.26,6.8.26c0,0,1.09,3.93,4.42,4.81,3.33.88,5.22-1.31,5.22-1.31,0,0,1.21,2.87,5.13,2.58,2.46-.18,2.65-2.41,2.65-2.41,0,0,1.15,2.25,4.62.5,2.14-1.08.96-1.75-.76-4.07-.92-1.24-.5-4.5.25-7.75,1.65.33,6,.86,6.03-2.63Z"/>
        <g>
          <ellipse class="cls-2" cx="19.85" cy="19.81" rx="4.43" ry="2.28" transform="translate(-3.07 35.96) rotate(-80.12)"/>
          <g>
            <circle class="cls-4" cx="16.19" cy="10.98" r="1.79"/>
            <circle class="cls-4" cx="26.27" cy="12.74" r="1.79"/>
          </g>
        </g>
      </g>
      <g>
        <path class="cls-1" d="M34.04,17.06s4.83-2.3,5.07-6.26.32-6.35,3.02-7.07,4.29,1.95,4.27,5.12c-.01,2-.94,5.94-4.89,6.94s-7.47,1.27-7.47,1.27Z"/>
        <g>
          <circle class="cls-4" cx="44.39" cy="6.52" r=".75"/>
          <circle class="cls-4" cx="41.89" cy="6.52" r=".75"/>
          <ellipse class="cls-4" cx="43.17" cy="9.57" rx=".75" ry="2.3"/>
        </g>
      </g>
    </g>
  </g>
</svg>