<?xml version="1.0" encoding="UTF-8"?>
<svg id="Layer_2" data-name="Layer 2" xmlns="http://www.w3.org/2000/svg" viewBox="0 0 40.09 40.47">
  <defs>
    <style>
      .cls-1 {
        fill: #130711;
      }
    </style>
  </defs>
  <g id="Layer_1-2" data-name="Layer 1">
    <g>
      <path class="cls-1" d="M11.99,19.94c.07-.69.41-1.16.96-1.54.54-.37,1.03-.81,1.53-1.23.15-.12.28-.23.48-.15.19.08.22.26.22.45.01,1,.87,1.53,1.78,1.08.17-.08.33-.15.5,0,.16.14.13.31.08.49-.15.67-.31,1.34-.42,2.02-.1.62-.37,1.11-.93,1.46.32.21.65.29.99.32.68.06,1.27-.17,1.8-.59.57-.45,1-1.02,1.37-1.64.25-.41.45-.84.7-1.25.07-.12.22-.25.33-.25.13,0,.3.13.37.24.91,1.67,1.46,3.46,1.67,5.35.3,2.58,0,5.12-.58,7.63-.05.2-.12.39-.36.41-.22.01-.31-.16-.4-.33-.21-.43-.4-.87-.65-1.27-1.05-1.67-2.6-2.32-4.54-1.93-.2.04-.4.09-.6.13-.2.04-.36-.02-.44-.21-.39-.9-1.13-1.37-2.05-1.54-1.36-.26-2.61,0-3.67.95-.08.07-.16.16-.23.24-.14.17-.31.24-.52.12-.19-.12-.21-.3-.13-.49.38-.93.33-1.87-.02-2.79-.34-.91-.86-1.7-1.79-2.11-.34-.15-.73-.2-1.11-.24-.35-.04-.43-.07-.53-.42-.12-.42-.24-.84-.41-1.23-.65-1.47-1.82-2.23-3.39-2.39-.5-.05-1-.01-1.5-.02-.04,0-.09.02-.13,0-.13-.07-.33-.12-.38-.23-.04-.11.02-.34.12-.42,2.45-2.1,5.13-3.8,8.31-4.58,1.23-.31,2.48-.44,3.75-.43.19,0,.38,0,.48.21.1.21-.02.36-.14.51-.64.87-1.23,1.76-1.52,2.82-.29,1.05-.11,1.97.74,2.71.04.04.09.07.14.11.02.01.05.02.09.03Z"/>
      <path class="cls-1" d="M6.79,2.78c-.16-.21-.2-.44-.14-.69.05-.25.07-.5.1-.76,0-.07.02-.14.09-.17.08-.03.13.02.18.07.27.28.66.2.79-.17.03-.07.05-.13.14-.13.08,0,.12.05.16.12.14.23.27.46.42.68.14.2.19.41.13.66.14-.03.26-.09.37-.18.21-.17.31-.39.35-.65.04-.28.01-.56-.05-.83-.04-.18-.1-.36-.14-.54-.01-.05,0-.13.03-.16.04-.03.12-.04.17-.03.7.23,1.34.59,1.9,1.06.77.65,1.37,1.44,1.88,2.31.04.07.07.14,0,.21-.06.06-.13.04-.2.01-.17-.07-.34-.14-.52-.18-.74-.19-1.36.04-1.8.67-.05.06-.09.13-.13.2-.05.06-.11.09-.18.06-.35-.15-.68-.09-.99.11-.45.29-.73.7-.78,1.25,0,.04,0,.09,0,.13,0,.09-.02.15-.11.17-.09.02-.14-.03-.17-.11-.14-.36-.41-.62-.75-.78-.34-.16-.7-.25-1.07-.12-.14.05-.26.14-.38.23-.11.08-.14.09-.26.02-.15-.08-.29-.17-.45-.24-.58-.24-1.11-.14-1.6.23-.15.12-.29.26-.43.4-.01.01-.02.03-.03.03-.06.02-.13.06-.17.04-.04-.02-.08-.1-.08-.15.13-1.25.43-2.44,1.12-3.52.27-.42.58-.79.94-1.12.05-.05.11-.1.19-.07.08.03.09.11.1.18.05.42.12.83.32,1.2.2.37.5.59.93.57.02,0,.05,0,.07,0,0,0,.02,0,.03-.02Z"/>
      <path class="cls-1" d="M31.99,36.06c-.25-.23-.34-.5-.32-.82.01-.32-.02-.64-.04-.96,0-.09-.01-.18.08-.23.09-.05.16,0,.24.04.4.29.85.1.94-.38.02-.09.04-.17.14-.2.1-.02.16.04.22.11.22.25.44.51.67.75.21.22.32.47.3.79.17-.06.3-.17.41-.3.22-.25.3-.55.29-.88-.01-.35-.11-.69-.24-1.01-.09-.21-.2-.42-.29-.64-.02-.06-.03-.16,0-.2.04-.05.14-.08.2-.07.92.13,1.78.44,2.58.9,1.1.63,2.01,1.48,2.82,2.44.07.08.12.16.06.26-.06.09-.15.08-.25.06-.23-.04-.46-.1-.69-.11-.96-.07-1.67.34-2.08,1.21-.04.09-.08.18-.12.27-.04.09-.11.14-.21.11-.47-.11-.86.04-1.2.36-.5.46-.76,1.02-.7,1.71,0,.05.02.11.03.16.02.11,0,.19-.1.24-.1.04-.18,0-.23-.09-.26-.42-.64-.67-1.1-.8-.46-.13-.92-.15-1.34.09-.16.09-.29.23-.42.36-.12.13-.15.15-.32.09-.2-.07-.4-.15-.6-.2-.76-.17-1.4.06-1.92.63-.16.18-.3.39-.44.58-.01.02-.02.04-.04.05-.07.03-.14.1-.2.08-.06-.01-.13-.11-.13-.17-.11-1.57,0-3.11.62-4.59.24-.57.55-1.1.92-1.59.06-.07.11-.15.22-.13.11.02.13.11.16.2.15.5.33.99.66,1.41.33.42.74.62,1.28.5.03,0,.06-.01.08-.02.01,0,.02-.01.04-.03Z"/>
    </g>
  </g>
</svg>