<?xml version="1.0" encoding="UTF-8"?>
<svg id="Layer_2" data-name="Layer 2" xmlns="http://www.w3.org/2000/svg" viewBox="0 0 44.43 62.84">
  <defs>
    <style>
      .cls-1, .cls-2 {
        fill: #130711;
      }

      .cls-2 {
        stroke: #fff;
      }

      .cls-2, .cls-3 {
        stroke-miterlimit: 10;
        stroke-width: 2px;
      }

      .cls-3 {
        fill: #fff;
        stroke: #130711;
      }

      .cls-4 {
        fill: #f3b2c6;
      }

      .cls-5 {
        fill: #bc1830;
      }
    </style>
  </defs>
  <g id="Layer_1-2" data-name="Layer 1">
    <g>
      <path class="cls-3" d="M9.48,29.11s-7.33-3.72-8.4-11.21,10.17-13.12,14.27-6.54,4.06,12.05,4.06,12.05l-2.27,5.22-7.65.49Z"/>
      <path class="cls-4" d="M11.94,26.6s-3.26-1.65-3.73-4.98,4.52-5.83,6.34-2.9,1.8,5.35,1.8,5.35l-4.41,2.53Z"/>
      <path class="cls-3" d="M37.63,27.4s6.36-7.43,5.75-17.32-12.87-12.87-15.43-3-1.31,16.77-1.31,16.77l3.38,5.77,7.61-2.22Z"/>
      <path class="cls-4" d="M34.66,25.13s2.83-3.3,2.56-7.69-5.72-5.71-6.85-1.33-.58,7.45-.58,7.45l4.88,1.58Z"/>
      <g>
        <path class="cls-2" d="M17.14,51.46l7.73,3.65s-2.39,5.58-9.27,5.81-7.54-4-5.15-6.12,6.69-3.35,6.69-3.35Z"/>
        <path class="cls-2" d="M32.09,51.46l-7.73,3.65s2.39,5.58,9.27,5.81,7.54-4,5.15-6.12-6.69-3.35-6.69-3.35Z"/>
        <g>
          <path class="cls-5" d="M28.09,62.84s-.02,0-.03,0c-.08-.02-2.06-.43-3.38-2.46-1.33-2.06-.28-4.16-.23-4.25.03-.06.09-.09.15-.09.07,0,.12.03.15.09.41.74,1.68,2.68,2.65,2.78.25.02.46-.07.65-.3.17-.2.23-.43.18-.69-.26-1.4-3.41-3.15-3.45-3.16-.08-.05-.11-.15-.07-.23s.15-.11.23-.07c.14.07,3.33,1.84,3.62,3.4.07.36-.02.69-.26.97-.26.31-.58.45-.94.42-1.1-.11-2.3-1.92-2.74-2.65-.23.64-.6,2.15.34,3.6,1.23,1.91,3.14,2.31,3.16,2.31.09.02.15.11.13.2-.02.08-.09.14-.17.14Z"/>
          <path class="cls-5" d="M20.77,61.56s-.06,0-.09-.02c-.07-.04-.7-.43-.6-.92.1-.48.83-.77,2.3-.93,1-.11,1.68-.46,2.02-1.04.43-.75.21-1.71.07-2.14-.58.53-2.35,2.01-3.47,1.78-.36-.07-.62-.3-.78-.68-.14-.34-.13-.68.04-1.01.74-1.41,4.31-2.14,4.46-2.17.09-.02.18.04.2.13.02.09-.04.18-.13.2-.04,0-3.56.73-4.23,2-.12.23-.13.47-.03.71.11.27.29.43.53.47.96.19,2.75-1.28,3.36-1.87.04-.04.1-.06.15-.04s.1.05.12.1c.03.06.66,1.54,0,2.68-.4.68-1.16,1.09-2.28,1.21-1.76.19-1.98.55-2,.66-.04.2.28.46.44.55.08.05.11.15.06.23-.03.05-.09.08-.15.08Z"/>
          <circle class="cls-5" cx="24.72" cy="55.21" r="1.09"/>
        </g>
      </g>
      <rect class="cls-3" x="5.81" y="23.3" width="37.62" height="31.33" rx="15.66" ry="15.66"/>
      <path class="cls-1" d="M30.05,44.26c-.07-.09-.18-.15-.29-.16-.12-.01-.23.02-.32.09-.09.07-.15.18-.16.3,0,.08-.21,1.91-1.79,2.13h-.64c-1.58-.22-1.78-2.05-1.79-2.13-.02-.22-.21-.39-.44-.39-.23,0-.41.17-.43.39,0,.08-.23,1.91-1.8,2.13h-.63c-1.58-.22-1.78-2.05-1.79-2.13-.01-.12-.07-.22-.16-.3-.09-.07-.21-.11-.32-.09-.12.01-.22.07-.3.16-.07.09-.11.2-.1.32,0,.02.24,2.13,1.94,2.76l.61,1.4c.07.16.23.26.4.26s.33-.1.4-.26l.61-1.38c.79-.28,1.28-.87,1.56-1.41.29.55.77,1.14,1.56,1.41l.61,1.38c.07.16.23.26.4.26s.33-.1.4-.26l.61-1.4c1.7-.63,1.94-2.74,1.94-2.76.01-.12-.02-.23-.1-.32Z"/>
      <path class="cls-4" d="M23.79,42.55c-.1,0-.18.09-.17.19.04.33.22.96.99.96s.96-.63,1-.96c.01-.1-.07-.19-.17-.19h-1.65Z"/>
      <rect class="cls-1" x="30.98" y="37.82" width="5" height="6.5" rx="2.5" ry="2.5" transform="translate(-14.2 17.96) rotate(-24.96)"/>
      <rect class="cls-1" x="13.84" y="37.82" width="5" height="6.5" rx="2.5" ry="2.5" transform="translate(13.83 85.2) rotate(-155.04)"/>
    </g>
  </g>
</svg>