<?xml version="1.0" encoding="UTF-8"?>
<svg id="Layer_2" data-name="Layer 2" xmlns="http://www.w3.org/2000/svg" viewBox="0 0 54.87 30.65">
  <defs>
    <style>
      .cls-1 {
        fill: #eee8f6;
      }

      .cls-2 {
        fill: #130711;
      }

      .cls-3 {
        fill: #f3b2c6;
      }
    </style>
  </defs>
  <g id="Layer_1-2" data-name="Layer 1">
    <g>
      <path class="cls-2" d="M36.72,30.61c-.11-3.75,1.03-7.31,4.08-8.98s5.53,4.25,9.55,1.76c4.03-2.49,6.19-9.17,2.96-12.99s-7.57-4.35-9.58-1.89,2.73,4.17,3.94,4.88c1.37.81,3.26,1.42,2.03,3.58s-1.54,2.1-6.09-.17c-3.25-1.62-5.2-.3-7.23,2.56-2.03,2.87-4.14,8.32-4.14,8.32l4.47,2.93Z"/>
      <g>
        <g>
          <path class="cls-2" d="M36.83,25.13c0-6.27-2.2-11.91-5.71-15.87l.73-6.87c.13-1.21-1.36-1.88-2.18-.98l-3.54,3.87c-2.21-1.18-4.65-1.84-7.22-1.84s-5.01.66-7.22,1.84l-3.54-3.87c-.82-.9-2.31-.23-2.18.98l.73,6.87C3.2,13.22,1,18.87,1,25.13c0,1.55.14,3.06.39,4.52h35.04c.25-1.46.39-2.97.39-4.52Z"/>
          <path class="cls-2" d="M36.44,30.65H1.39c-.49,0-.9-.35-.98-.83-.27-1.54-.41-3.12-.41-4.69,0-6.16,2.01-11.89,5.67-16.19l-.69-6.43c-.11-.99.41-1.89,1.32-2.3.9-.41,1.92-.2,2.59.53l3.03,3.31c4.46-2.13,9.53-2.13,13.99,0l3.03-3.31c.67-.73,1.69-.94,2.59-.53s1.42,1.31,1.32,2.3l-.69,6.43c3.66,4.3,5.67,10.03,5.67,16.19,0,1.57-.14,3.15-.41,4.69-.08.48-.5.83-.98.83ZM2.25,28.65h33.34c.16-1.16.25-2.34.25-3.52,0-5.75-1.99-11.29-5.46-15.2-.19-.21-.28-.49-.25-.77l.73-6.87c.01-.12-.04-.21-.15-.26-.11-.05-.21-.03-.3.06l-3.54,3.87c-.31.34-.81.42-1.21.21-4.28-2.29-9.22-2.29-13.5,0-.4.21-.9.13-1.21-.21l-3.54-3.87c-.08-.09-.18-.11-.3-.06s-.16.14-.15.26l.73,6.87c.03.28-.06.56-.25.77-3.47,3.91-5.46,9.45-5.46,15.2,0,1.17.08,2.35.25,3.52Z"/>
        </g>
        <g>
          <path class="cls-3" d="M30.14,9.29l.56-5.01c.04-.4-.44-.63-.72-.34l-2.96,3.08c-.17.18-.15.46.04.62l2.41,1.93c.26.21.64.05.68-.28Z"/>
          <path class="cls-3" d="M7.69,9.29l-.56-5.01c-.04-.4.44-.63.72-.34l2.96,3.08c.17.18.15.46-.04.62l-2.41,1.93c-.26.21-.64.05-.68-.28Z"/>
        </g>
        <g>
          <g>
            <line class="cls-3" x1="11.18" y1="4.73" x2="13.07" y2="6.74"/>
            <path class="cls-2" d="M13.07,7.74c-.27,0-.53-.11-.73-.31l-1.89-2.01c-.38-.4-.36-1.03.04-1.41.4-.38,1.03-.36,1.41.04l1.89,2.01c.38.4.36,1.03-.04,1.41-.19.18-.44.27-.69.27Z"/>
          </g>
          <g>
            <line class="cls-3" x1="26.65" y1="4.73" x2="24.76" y2="6.74"/>
            <path class="cls-2" d="M24.76,7.74c-.25,0-.49-.09-.69-.27-.4-.38-.42-1.01-.04-1.41l1.89-2.01c.38-.4,1.01-.42,1.41-.04.4.38.42,1.01.04,1.41l-1.89,2.01c-.2.21-.46.31-.73.31Z"/>
          </g>
        </g>
      </g>
      <g>
        <g>
          <ellipse class="cls-1" cx="16.33" cy="13.78" rx=".7" ry="1.31"/>
          <ellipse class="cls-1" cx="21.5" cy="13.78" rx=".7" ry="1.31"/>
          <g>
            <path class="cls-1" d="M17.53,21.33c-.1,0-.2-.03-.29-.09-.23-.16-.28-.47-.12-.7l.17-.25c.53-.77.89-1.62,1.06-2.54l.06-.34c.05-.27.32-.45.58-.4.27.05.45.31.4.58l-.06.34c-.2,1.06-.61,2.04-1.23,2.93l-.17.25c-.1.14-.25.21-.41.21Z"/>
            <path class="cls-1" d="M20.3,21.33c-.16,0-.31-.07-.41-.21l-.16-.23c-.62-.88-1.03-1.87-1.23-2.93l-.07-.36c-.05-.27.13-.53.4-.58.27-.05.53.13.58.4l.07.36c.17.92.53,1.77,1.07,2.54l.16.23c.16.23.1.54-.12.7-.09.06-.19.09-.29.09Z"/>
          </g>
          <ellipse class="cls-3" cx="18.91" cy="17.22" rx=".54" ry=".29"/>
        </g>
        <g>
          <g>
            <g>
              <line class="cls-3" x1="25.22" y1="18.59" x2="28.15" y2="17.36"/>
              <path class="cls-1" d="M25.22,19.09c-.19,0-.38-.11-.46-.31-.11-.25.01-.55.27-.66l2.93-1.23c.25-.11.55.01.66.27.11.25-.01.55-.27.66l-2.93,1.23c-.06.03-.13.04-.19.04Z"/>
            </g>
            <g>
              <line class="cls-3" x1="25.22" y1="20.86" x2="28.15" y2="22.1"/>
              <path class="cls-1" d="M28.15,22.6c-.06,0-.13-.01-.19-.04l-2.93-1.23c-.25-.11-.37-.4-.27-.66.11-.25.4-.37.66-.27l2.93,1.23c.25.11.37.4.27.66-.08.19-.27.31-.46.31Z"/>
            </g>
          </g>
          <g>
            <g>
              <line class="cls-3" x1="12.6" y1="18.59" x2="9.68" y2="17.36"/>
              <path class="cls-1" d="M12.6,19.09c-.06,0-.13-.01-.19-.04l-2.93-1.23c-.25-.11-.37-.4-.27-.66.11-.25.4-.37.66-.27l2.93,1.23c.25.11.37.4.27.66-.08.19-.27.31-.46.31Z"/>
            </g>
            <g>
              <line class="cls-3" x1="12.6" y1="20.86" x2="9.68" y2="22.1"/>
              <path class="cls-1" d="M9.68,22.6c-.19,0-.38-.11-.46-.31-.11-.25.01-.55.27-.66l2.93-1.23c.25-.11.55.01.66.27.11.25-.01.55-.27.66l-2.93,1.23c-.06.03-.13.04-.19.04Z"/>
            </g>
          </g>
        </g>
      </g>
    </g>
  </g>
</svg>