<?xml version="1.0" encoding="UTF-8"?>
<svg id="Layer_2" data-name="Layer 2" xmlns="http://www.w3.org/2000/svg" viewBox="0 0 51.93 55.98">
  <defs>
    <style>
      .cls-1, .cls-2, .cls-3 {
        fill: #7b3627;
      }

      .cls-4 {
        fill: #4d2639;
      }

      .cls-5, .cls-6 {
        fill: #0e0704;
      }

      .cls-7 {
        fill: #e15010;
      }

      .cls-2, .cls-3, .cls-6, .cls-8 {
        stroke: #0e0704;
      }

      .cls-2, .cls-6, .cls-8 {
        stroke-linecap: round;
        stroke-linejoin: round;
        stroke-width: .5px;
      }

      .cls-3 {
        stroke-miterlimit: 10;
      }

      .cls-9 {
        fill: #bf4520;
      }

      .cls-10 {
        fill: #fa720c;
      }

      .cls-8 {
        fill: #fefefe;
      }
    </style>
  </defs>
  <g id="Layer_1-2" data-name="Layer 1">
    <g>
      <g>
        <rect class="cls-3" x="12.6" y=".5" width="6.94" height="52.51" rx="2.59" ry="2.59"/>
        <g>
          <path class="cls-3" d="M28.61,23.39L2.86,19.2c-1.53-.25-2.57-1.69-2.32-3.22l1.68-10.32c.25-1.53,1.69-2.57,3.22-2.32l25.58,4.16c.67.11,1.28.46,1.72.99l5.28,6.42c1.1,1.34.74,3.34-.76,4.21l-6.79,3.94c-.56.33-1.22.45-1.86.34Z"/>
          <g>
            <path class="cls-8" d="M20.34,13.21c.31-2.35-1.35-4.5-3.7-4.8-2.35-.31-4.5,1.35-4.8,3.7-.16,1.27.24,2.47,1.02,3.36-.18.21-.3.48-.34.77-.11.83.48,1.6,1.31,1.7h.11s2.98.4,2.98.4c.83.11,1.6-.48,1.7-1.31.04-.3-.01-.58-.13-.83.98-.66,1.68-1.72,1.85-2.99Z"/>
            <g>
              <line class="cls-2" x1="14.39" y1="16.44" x2="14.19" y2="17.98"/>
              <line class="cls-2" x1="15.57" y1="16.6" x2="15.37" y2="18.14"/>
              <line class="cls-2" x1="16.75" y1="16.75" x2="16.55" y2="18.29"/>
            </g>
            <g>
              <circle class="cls-6" cx="14.16" cy="12.72" r="1.14"/>
              <circle class="cls-6" cx="17.94" cy="13.21" r="1.14"/>
            </g>
          </g>
        </g>
      </g>
      <g>
        <g>
          <g>
            <ellipse class="cls-10" cx="19.31" cy="49.93" rx="5.01" ry="5.47"/>
            <ellipse class="cls-10" cx="10.01" cy="49.93" rx="5.01" ry="5.47"/>
            <ellipse class="cls-10" cx="15.02" cy="49.93" rx="5.01" ry="5.47"/>
          </g>
          <path class="cls-7" d="M24.25,50.7s-1.19,1.01-2.82.93-2.12-1-2.12-1c0,0-1.89,1.34-4.5,1.44-2.61.1-5.38-.88-5.38-.88,0,0-1.15.91-1.98.88s-1.96-.09-1.96-.09l1.46,2.4,2.56,1.01,2.87-.51,1.53.51,1.67-.07,1.01-.52.84.47s2.1.36,2.16.33,2.59-.89,2.59-.89l1.36-1.72.7-2.3Z"/>
          <path class="cls-9" d="M14.3,55.98c3.08,0,5.59-2.72,5.59-6.06s-2.51-6.06-5.59-6.06-5.59,2.72-5.59,6.06,2.51,6.06,5.59,6.06ZM14.3,45.04c2.44,0,4.42,2.19,4.42,4.89s-1.98,4.89-4.42,4.89-4.42-2.19-4.42-4.89,1.98-4.89,4.42-4.89Z"/>
          <path class="cls-5" d="M10.01,43.87c.76,0,1.48.17,2.15.47.66-.3,1.39-.47,2.15-.47.9,0,1.75.26,2.5.67.76-.41,1.6-.67,2.5-.67,3.08,0,5.59,2.72,5.59,6.06s-2.51,6.06-5.59,6.06c-.9,0-1.75-.26-2.5-.67-.76.41-1.6.67-2.5.67-.76,0-1.48-.17-2.15-.47-.66.3-1.39.47-2.15.47-3.08,0-5.59-2.72-5.59-6.06s2.51-6.06,5.59-6.06ZM10.01,54.82s.09-.01.14-.02c.05,0,.1.02.16.02.72,0,1.4-.18,2.01-.49.53.27,1.12.42,1.74.46.08,0,.16.03.24.03,0,0,0,0,.01,0s0,0,.01,0c.86,0,1.65-.26,2.34-.68.69.42,1.48.68,2.34.68.05,0,.1-.01.15-.02.05,0,.1.02.15.02,2.44,0,4.42-2.19,4.42-4.89s-1.98-4.89-4.42-4.89c-.05,0-.1.01-.15.02-.05,0-.1-.02-.15-.02-.86,0-1.65.26-2.34.68-.69-.42-1.48-.68-2.34-.68,0,0,0,0-.01,0,0,0,0,0-.01,0-.08,0-.15.02-.22.03-.63.03-1.22.19-1.76.46-.61-.3-1.29-.49-2.01-.49-.05,0-.1.01-.16.02-.05,0-.09-.02-.14-.02-2.44,0-4.42,2.19-4.42,4.89s1.98,4.89,4.42,4.89Z"/>
        </g>
        <g>
          <ellipse class="cls-10" cx="26.15" cy="44.45" rx="8.76" ry="10.94"/>
          <g>
            <path class="cls-1" d="M37.28,36.78s-.93-3.34,0-5.28c.93-1.95.98-2.33-1.72-3.41-2.7-1.08-3.61,6.74-3.61,6.74l5.33,1.95Z"/>
            <path class="cls-5" d="M38.15,37.72l-.3-1.09s-.86-3.15-.04-4.87c.44-.92.82-1.72.53-2.46-.28-.72-1.08-1.15-2.56-1.74-.56-.23-1.14-.18-1.65.12-2.02,1.2-2.68,6.49-2.75,7.09l-.05.46,6.83,2.49ZM35.07,28.58c.09,0,.18.02.28.06.87.35,1.78.75,1.91,1.08.1.25-.16.81-.5,1.53-.68,1.41-.48,3.4-.27,4.62l-3.89-1.42c.3-2.07,1.07-5.13,2.13-5.77.11-.07.22-.1.34-.1Z"/>
          </g>
          <ellipse class="cls-10" cx="42.41" cy="44.45" rx="8.76" ry="10.94"/>
          <ellipse class="cls-10" cx="33.66" cy="44.45" rx="8.76" ry="10.94"/>
          <path class="cls-7" d="M50.58,44.45s-2.82,4.39-5.08,3.86-3.09-2.83-3.09-2.83c0,0-5.05,4.97-9.16,4.97s-8.12-3.46-8.12-3.46c0,0-.82,2.31-2.58,2.54-1.76.23-4.23-2.1-4.23-2.1,0,0,1.89,8.84,9.79,7.08,5.2-1.16,1.9,1.72,6.12.54s4.3-2.09,4.3-2.09c0,0-.46,1.46,3.76,1.84,2.43.22,5.77-1.64,7.33-5.62,1.13-2.88.96-4.74.96-4.74Z"/>
          <path class="cls-9" d="M33.84,55.98c5.15,0,9.34-5.17,9.34-11.53s-4.19-11.53-9.34-11.53-9.34,5.17-9.34,11.53,4.19,11.53,9.34,11.53ZM33.84,34.09c4.51,0,8.17,4.65,8.17,10.36s-3.67,10.36-8.17,10.36-8.17-4.65-8.17-10.36,3.67-10.36,8.17-10.36Z"/>
          <path class="cls-5" d="M26.33,55.98c1.3,0,2.56-.33,3.75-.98,2.6,1.41,5.63,1.27,8.13-.37,1.35.89,2.85,1.35,4.38,1.35,5.15,0,9.34-5.17,9.34-11.53s-4.19-11.53-9.34-11.53c-1.52,0-3.03.47-4.38,1.35-2.5-1.64-5.53-1.78-8.13-.37-1.2-.65-2.46-.98-3.75-.98-5.15,0-9.34,5.17-9.34,11.53s4.19,11.53,9.34,11.53ZM30.08,53.65l-.3.18c-1.1.65-2.26.99-3.45.99-4.51,0-8.17-4.65-8.17-10.36s3.67-10.36,8.17-10.36c1.19,0,2.35.33,3.45.99l.3.18.3-.18c2.39-1.43,5.21-1.27,7.49.38l.34.25.34-.25c1.23-.89,2.63-1.37,4.04-1.37,4.51,0,8.17,4.65,8.17,10.36s-3.67,10.36-8.17,10.36c-1.41,0-2.8-.47-4.04-1.37l-.34-.25-.34.25c-2.28,1.65-5.1,1.81-7.49.38l-.3-.18Z"/>
          <g>
            <path class="cls-4" d="M44.09,40.62l-3.34-3.7c-.22-.25-.62-.18-.75.13l-1.91,4.48c-.14.33.13.68.48.63l2.64-.39,2.6-.39c.36-.05.51-.48.27-.75Z"/>
            <path class="cls-4" d="M23.22,40.62l3.34-3.7c.22-.25.62-.18.75.13l1.91,4.48c.14.33-.13.68-.48.63l-2.64-.39-2.6-.39c-.36-.05-.51-.48-.27-.75Z"/>
            <polygon class="cls-7" points="40.02 37.28 43.54 41.34 44.17 41.18 44.21 40.8 40.4 36.73 40.02 36.73 40.02 37.28"/>
            <polygon class="cls-7" points="26.57 37.09 28.54 42.1 29.18 42.15 29.34 41.81 27.11 36.7 26.76 36.57 26.57 37.09"/>
            <path class="cls-5" d="M28.81,42.46c.24,0,.45-.11.6-.3.17-.22.21-.51.1-.77l-1.91-4.48c-.1-.24-.32-.41-.58-.45-.26-.04-.52.05-.69.24l-3.34,3.7c-.19.21-.25.51-.15.77.1.27.33.46.61.5l5.24.78s.08,0,.12,0ZM26.89,37.08s.02,0,.02,0c.03,0,.08.02.11.08l1.91,4.48c.03.07,0,.12-.02.14-.02.02-.06.06-.13.05l-5.24-.78c-.07-.01-.1-.06-.11-.09-.01-.03-.02-.09.03-.14l3.34-3.7s.07-.05.1-.05Z"/>
            <path class="cls-4" d="M32.2,44.78l1.47-2.24c.1-.15.32-.15.41,0l1.38,2.22c.1.16-.02.37-.21.37h-1.43s-1.42.02-1.42.02c-.19,0-.31-.21-.2-.38Z"/>
            <polygon class="cls-7" points="33.54 42.79 34.84 45.12 35.24 45.08 35.3 44.86 33.82 42.5 33.59 42.46 33.54 42.79"/>
            <path class="cls-5" d="M32.4,45.47h0l2.85-.02c.2,0,.39-.11.48-.29s.09-.39-.01-.56l-1.38-2.22c-.1-.16-.27-.26-.47-.26-.2,0-.37.09-.47.25l-1.47,2.24c-.11.17-.12.39-.02.57.1.18.28.29.49.29ZM32.46,44.95s0,0,0,0h0ZM35.13,44.83l-2.6.02,1.34-2.04,1.26,2.02Z"/>
            <path class="cls-4" d="M25.09,47.22c-.04-.53.09-.98.36-1.26,0,0,.86-.63,1.72.06.05.04.21.23.39.45.29.35.48.76.62,1.19.16.47.55,1.07,1.06,1.36.47.16,1.22.26,1.52-.5.41-1.04.51-.76,2.22-.71.24,0,.52,0,.87,0,.35,0,.63,0,.87,0,1.71-.05,1.81-.33,2.22.71.3.76,1.05.66,1.52.5.51-.3.9-.89,1.06-1.36.15-.43.34-.84.62-1.19.18-.21.34-.41.39-.45.87-.69,1.72-.06,1.72-.06.27.28.4.73.36,1.26.13,1.69-1.15,4.72-8.13,4.91-.19,0-.39.01-.59.01-.02,0-.04,0-.06,0-.02,0-.04,0-.06,0-.2,0-.4,0-.59-.01-6.98-.19-8.25-3.22-8.13-4.91Z"/>
            <path class="cls-5" d="M33.81,52.45l.09-.31v.31c.25,0,.43,0,.63-.01,3.54-.1,6.03-.92,7.4-2.43,1-1.11,1.07-2.24,1.03-2.82.05-.58-.11-1.11-.45-1.46-.4-.3-1.31-.63-2.14.04-.03.03-.1.08-.44.49-.28.34-.49.75-.68,1.28-.14.4-.47.92-.9,1.18-.86.27-1.04-.18-1.1-.33-.4-1-.7-1.02-1.68-.95-.23.02-.5.04-.85.04h-.86s-.87,0-.87,0c-.34,0-.61-.03-.84-.04-.98-.07-1.28-.04-1.68.95-.06.15-.24.6-1.1.33-.43-.26-.76-.78-.9-1.18-.19-.54-.4-.94-.68-1.28-.32-.39-.39-.46-.44-.49-.83-.66-1.74-.34-2.1-.07-.37.38-.53.9-.49,1.52-.04.58.05,1.7,1.03,2.79,1.37,1.52,3.86,2.33,7.4,2.43.2,0,.39.01.6.01ZM41.45,46.01c.37,0,.64.19.65.2.17.18.27.55.23.99.04.53-.03,1.47-.87,2.4-.86.95-2.76,2.11-6.95,2.22-.19,0-.38.01-.58.01h-.1c-.21,0-.41,0-.6-.01-4.2-.12-6.1-1.27-6.96-2.23-.84-.93-.9-1.87-.87-2.35v-.02s0-.02,0-.02c-.04-.44.06-.81.27-1.02h0s.65-.43,1.31.09c0,0,.08.08.34.4.23.28.41.63.57,1.09.17.48.58,1.17,1.2,1.53l.06.03c.92.3,1.62.06,1.91-.68.24-.62.25-.62,1.05-.56.23.02.52.04.87.05h.88s.87,0,.87,0c.36-.01.65-.03.88-.05q.81-.06,1.05.56c.29.74.99.99,1.91.68l.06-.03c.62-.36,1.03-1.05,1.2-1.53.16-.46.34-.81.57-1.09.27-.34.34-.4.35-.4.24-.19.48-.25.69-.25Z"/>
            <path class="cls-5" d="M38.51,42.46s.08,0,.12,0l5.24-.78c.28-.04.51-.23.61-.5.1-.27.04-.56-.15-.77h0s-3.34-3.7-3.34-3.7c-.18-.19-.43-.29-.69-.24-.26.04-.48.21-.58.45l-1.91,4.48c-.11.26-.07.55.1.77.15.19.37.3.6.3ZM43.86,40.83c.05.05.04.11.03.14-.01.03-.04.08-.11.09l-5.24.78c-.07.01-.11-.03-.13-.05-.02-.02-.05-.07-.02-.14l1.91-4.48c.03-.06.08-.08.11-.08.03,0,.08,0,.13.04l3.34,3.7Z"/>
          </g>
        </g>
      </g>
    </g>
  </g>
</svg>