<?xml version="1.0" encoding="UTF-8"?>
<svg id="Layer_2" data-name="Layer 2" xmlns="http://www.w3.org/2000/svg" viewBox="0 0 40.68 24.47">
  <defs>
    <style>
      .cls-1 {
        fill: #7b3627;
      }

      .cls-2 {
        fill: #4d2639;
      }

      .cls-3 {
        fill: #0e0704;
      }

      .cls-4 {
        fill: #e15010;
      }

      .cls-5 {
        fill: #bf4520;
      }

      .cls-6 {
        fill: #fa720c;
      }
    </style>
  </defs>
  <g id="Layer_1-2" data-name="Layer 1">
    <ellipse class="cls-6" cx="27.93" cy="19.28" rx="4.29" ry="4.69"/>
    <ellipse class="cls-6" cx="35.89" cy="19.28" rx="4.29" ry="4.69"/>
    <ellipse class="cls-6" cx="31.6" cy="19.28" rx="4.29" ry="4.69"/>
    <path class="cls-4" d="M23.7,19.94s1.01.86,2.41.79,1.82-.85,1.82-.85c0,0,1.62,1.15,3.86,1.24s4.6-.75,4.6-.75c0,0,.99.78,1.69.76s1.68-.08,1.68-.08l-1.25,2.06-2.19.86-2.46-.44-1.31.44-1.43-.06-.87-.44-.72.4s-1.79.31-1.85.28-2.22-.76-2.22-.76l-1.16-1.47-.6-1.97Z"/>
    <path class="cls-5" d="M32.22,24.47c-2.64,0-4.79-2.33-4.79-5.19s2.15-5.19,4.79-5.19,4.79,2.33,4.79,5.19-2.15,5.19-4.79,5.19ZM32.22,15.1c-2.09,0-3.79,1.88-3.79,4.19s1.7,4.19,3.79,4.19,3.79-1.88,3.79-4.19-1.7-4.19-3.79-4.19Z"/>
    <path class="cls-3" d="M35.89,14.1c-.65,0-1.27.14-1.84.4-.57-.26-1.19-.4-1.84-.4-.77,0-1.5.22-2.14.57-.65-.36-1.37-.57-2.14-.57-2.64,0-4.79,2.33-4.79,5.19s2.15,5.19,4.79,5.19c.77,0,1.5-.22,2.14-.57.65.36,1.37.57,2.14.57.65,0,1.27-.14,1.84-.4.57.26,1.19.4,1.84.4,2.64,0,4.79-2.33,4.79-5.19s-2.15-5.19-4.79-5.19ZM35.89,23.47s-.08-.01-.12-.01c-.05,0-.09.01-.13.01-.62,0-1.2-.16-1.72-.42-.46.23-.96.36-1.49.39-.07,0-.14.02-.21.02,0,0,0,0,0,0s0,0-.01,0c-.73,0-1.41-.22-2.01-.58-.59.36-1.27.58-2.01.58-.04,0-.08-.01-.13-.01-.04,0-.08.01-.13.01-2.09,0-3.79-1.88-3.79-4.19s1.7-4.19,3.79-4.19c.04,0,.08.01.13.01.04,0,.09-.01.13-.01.73,0,1.41.22,2.01.58.59-.36,1.27-.58,2.01-.58,0,0,0,0,.01,0,0,0,0,0,0,0,.07,0,.13.02.19.02.54.03,1.05.17,1.51.4.52-.26,1.1-.42,1.72-.42.05,0,.09.01.13.01.04,0,.08-.01.12-.01,2.09,0,3.79,1.88,3.79,4.19s-1.7,4.19-3.79,4.19Z"/>
    <ellipse class="cls-6" cx="22.07" cy="14.6" rx="7.5" ry="9.37"/>
    <path class="cls-1" d="M12.54,8.03s.8-2.86,0-4.52-.84-1.99,1.47-2.92,3.09,5.77,3.09,5.77l-4.56,1.67Z"/>
    <path class="cls-3" d="M11.8,8.83l.26-.94s.74-2.7.03-4.17c-.38-.79-.71-1.47-.46-2.11.24-.62.93-.98,2.19-1.49.48-.19.97-.16,1.42.1,1.73,1.03,2.3,5.56,2.36,6.07l.04.39-5.85,2.13ZM14.44,1c-.08,0-.16.02-.24.05-.75.3-1.52.64-1.63.93-.08.21.13.7.43,1.31.58,1.21.42,2.92.23,3.96l3.33-1.22c-.25-1.77-.91-4.4-1.83-4.94-.1-.06-.19-.09-.29-.09Z"/>
    <ellipse class="cls-6" cx="8.15" cy="14.6" rx="7.5" ry="9.37"/>
    <ellipse class="cls-6" cx="15.65" cy="14.6" rx="7.5" ry="9.37"/>
    <path class="cls-4" d="M1.15,14.6s2.42,3.76,4.35,3.3,2.65-2.42,2.65-2.42c0,0,4.33,4.26,7.85,4.26s6.95-2.96,6.95-2.96c0,0,.7,1.98,2.21,2.18s3.62-1.8,3.62-1.8c0,0-1.62,7.57-8.39,6.06-4.45-.99-1.63,1.47-5.24.47s-3.68-1.79-3.68-1.79c0,0,.4,1.25-3.22,1.58-2.08.19-4.94-1.4-6.28-4.81-.96-2.46-.82-4.06-.82-4.06Z"/>
    <path class="cls-5" d="M15.49,24.47c-4.41,0-8-4.43-8-9.87s3.59-9.87,8-9.87,8,4.43,8,9.87-3.59,9.87-8,9.87ZM15.49,5.73c-3.86,0-7,3.98-7,8.87s3.14,8.87,7,8.87,7-3.98,7-8.87-3.14-8.87-7-8.87Z"/>
    <path class="cls-3" d="M21.92,24.47c-1.11,0-2.19-.28-3.21-.84-2.22,1.21-4.82,1.08-6.96-.32-1.15.76-2.44,1.16-3.75,1.16-4.41,0-8-4.43-8-9.87S3.59,4.73,8,4.73c1.3,0,2.59.4,3.75,1.16,2.14-1.4,4.74-1.53,6.96-.32,1.02-.56,2.1-.84,3.21-.84,4.41,0,8,4.43,8,9.87s-3.59,9.87-8,9.87ZM18.71,22.47l.26.15c.94.56,1.94.84,2.96.84,3.86,0,7-3.98,7-8.87s-3.14-8.87-7-8.87c-1.02,0-2.02.28-2.96.84l-.26.15-.26-.15c-2.05-1.22-4.46-1.09-6.41.33l-.29.21-.29-.21c-1.06-.76-2.25-1.17-3.46-1.17-3.86,0-7,3.98-7,8.87s3.14,8.87,7,8.87c1.2,0,2.4-.4,3.46-1.17l.29-.21.29.21c1.95,1.41,4.36,1.55,6.41.33l.26-.15Z"/>
    <path class="cls-2" d="M6.71,11.31l2.86-3.17c.19-.21.53-.15.64.11l1.63,3.83c.12.28-.11.58-.41.54l-2.26-.33-2.23-.33c-.31-.05-.44-.41-.23-.64Z"/>
    <path class="cls-2" d="M24.58,11.31l-2.86-3.17c-.19-.21-.53-.15-.64.11l-1.63,3.83c-.12.28.11.58.41.54l2.26-.33,2.23-.33c.31-.05.44-.41.23-.64Z"/>
    <polygon class="cls-4" points="10.2 8.45 7.18 11.93 6.65 11.79 6.61 11.47 9.87 7.98 10.2 7.98 10.2 8.45"/>
    <polygon class="cls-4" points="21.71 8.29 20.03 12.58 19.48 12.62 19.34 12.33 21.25 7.96 21.55 7.85 21.71 8.29"/>
    <path class="cls-3" d="M19.8,12.89c-.2,0-.39-.09-.51-.25-.15-.19-.18-.44-.08-.66l1.63-3.83c.09-.21.27-.35.49-.39.22-.04.44.04.59.21l2.86,3.17c.16.18.21.43.13.66-.08.23-.28.39-.52.43l-4.49.66s-.07,0-.1,0ZM21.44,8.28s-.02,0-.02,0c-.02,0-.07.02-.09.07l-1.63,3.83c-.02.06,0,.1.02.12.02.02.05.05.11.05l4.49-.66c.06,0,.09-.05.1-.08,0-.03.02-.07-.02-.12l-2.86-3.17s-.06-.04-.09-.04Z"/>
    <path class="cls-2" d="M16.89,14.88l-1.26-1.92c-.08-.13-.27-.12-.35,0l-1.18,1.9c-.09.14.01.32.18.32h1.23s1.21.01,1.21.01c.17,0,.27-.18.18-.32Z"/>
    <polygon class="cls-4" points="15.75 13.17 14.63 15.16 14.29 15.14 14.24 14.95 15.51 12.93 15.7 12.89 15.75 13.17"/>
    <path class="cls-3" d="M16.72,15.47h-2.44c-.17-.02-.33-.11-.41-.26s-.08-.34.01-.48l1.18-1.9c.09-.14.23-.22.4-.23.17,0,.31.08.4.22l1.26,1.92c.1.15.1.33.02.49-.08.15-.24.25-.42.25ZM16.67,15.02s0,0,0,0h0ZM14.39,14.92h2.22s-1.15-1.73-1.15-1.73l-1.08,1.73Z"/>
    <path class="cls-2" d="M22.98,16.96c.04-.46-.07-.84-.31-1.08,0,0-.73-.54-1.48.06-.04.03-.18.2-.33.38-.24.3-.41.65-.54,1.02-.14.4-.47.91-.91,1.17-.4.13-1.05.22-1.31-.43-.35-.89-.44-.65-1.91-.61-.2,0-.45,0-.74,0-.3,0-.54,0-.74,0-1.46-.04-1.55-.28-1.91.61-.26.65-.9.56-1.31.43-.44-.25-.77-.76-.91-1.17-.13-.37-.29-.72-.54-1.02-.15-.18-.29-.35-.33-.38-.74-.59-1.48-.06-1.48-.06-.23.24-.34.63-.31,1.08-.11,1.45.98,4.04,6.96,4.21.17,0,.33,0,.51,0,.02,0,.03,0,.05,0,.02,0,.03,0,.05,0,.17,0,.34,0,.51,0,5.97-.17,7.07-2.76,6.96-4.21Z"/>
    <path class="cls-3" d="M15.51,21.45l-.08-.27v.27c-.21,0-.37,0-.54,0-3.03-.08-5.17-.78-6.34-2.08-.85-.95-.92-1.92-.88-2.41-.04-.49.09-.95.38-1.25.34-.26,1.12-.54,1.83.03.03.02.08.06.37.42.24.29.42.64.58,1.1.12.34.4.79.77,1.01.74.23.89-.15.95-.28.34-.85.6-.87,1.44-.82.19.01.43.03.73.04h.74s.74,0,.74,0c.29,0,.52-.02.72-.04.84-.06,1.1-.04,1.44.82.05.13.2.52.95.28.37-.22.65-.66.77-1.01.16-.46.34-.81.58-1.1.27-.33.33-.39.37-.42.71-.57,1.49-.29,1.8-.06.32.32.45.77.42,1.3.03.5-.04,1.46-.88,2.39-1.17,1.3-3.3,2-6.34,2.08-.17,0-.34,0-.51,0ZM8.97,15.93c-.31,0-.54.16-.56.17-.14.15-.23.47-.2.84-.03.45.02,1.26.74,2.06.73.81,2.36,1.81,5.95,1.9.16,0,.33,0,.5,0h.08c.18,0,.35,0,.52,0,3.59-.1,5.22-1.09,5.96-1.91.72-.8.77-1.6.74-2.01v-.02s0-.02,0-.02c.03-.37-.05-.69-.23-.87h0s-.56-.37-1.12.08c0,0-.06.06-.29.34-.2.24-.35.54-.49.94-.14.41-.5,1-1.03,1.31l-.05.02c-.79.26-1.39.05-1.64-.58-.21-.53-.21-.53-.9-.48-.2.01-.45.03-.75.04h-.75s-.75,0-.75,0c-.31,0-.55-.03-.75-.04q-.69-.05-.9.48c-.25.63-.85.84-1.64.58l-.05-.02c-.53-.31-.89-.9-1.03-1.31-.14-.4-.29-.69-.49-.94-.23-.29-.29-.34-.3-.35-.21-.16-.41-.22-.59-.22Z"/>
    <path class="cls-3" d="M11.49,12.89s-.07,0-.1,0l-4.49-.66c-.24-.04-.44-.2-.52-.43-.08-.23-.03-.48.13-.66h0s2.86-3.17,2.86-3.17c.15-.17.37-.25.59-.21.22.04.41.18.5.39l1.63,3.83c.09.22.06.47-.08.66-.13.16-.31.26-.52.26ZM6.91,11.49s-.03.1-.02.12c0,.03.03.07.1.08l4.49.66c.06,0,.1-.02.11-.05.02-.02.04-.06.02-.12l-1.63-3.83c-.02-.05-.07-.07-.09-.07-.03,0-.07,0-.11.04l-2.86,3.17Z"/>
  </g>
</svg>