<?xml version="1.0" encoding="UTF-8"?>
<svg id="Layer_2" data-name="Layer 2" xmlns="http://www.w3.org/2000/svg" xmlns:xlink="http://www.w3.org/1999/xlink" viewBox="0 0 66.8 57.63">
  <defs>
    <style>
      .cls-1 {
        fill: none;
      }

      .cls-2 {
        fill: #6c3995;
      }

      .cls-3 {
        fill: #422257;
      }

      .cls-4 {
        fill: #3c1e4e;
      }

      .cls-5 {
        fill: #492661;
      }

      .cls-6 {
        fill: #3e1f50;
      }

      .cls-7 {
        fill: #592f79;
      }

      .cls-8 {
        fill: #542c72;
      }

      .cls-9 {
        fill: #6e3b99;
      }

      .cls-10 {
        fill: #66368c;
      }

      .cls-11 {
        fill: #7d43af;
      }

      .cls-12 {
        fill: #46245d;
      }

      .cls-13 {
        fill: #46245c;
      }

      .cls-14 {
        fill: #7840a7;
      }

      .cls-15 {
        fill: #592f7a;
      }

      .cls-16 {
        fill: #532c71;
      }

      .cls-17 {
        fill: #3b1e4c;
      }

      .cls-18 {
        fill: #502a6c;
      }

      .cls-19 {
        fill: #3a1d4a;
      }

      .cls-20 {
        fill: #512a6e;
      }

      .cls-21 {
        fill: #432258;
      }

      .cls-22 {
        fill: #eee8f6;
      }

      .cls-23 {
        fill: #3c1e4d;
      }

      .cls-24 {
        fill: #4b2764;
      }

      .cls-25 {
        fill: #3e2051;
      }

      .cls-26 {
        fill: #422256;
      }

      .cls-27 {
        fill: #522b6f;
      }

      .cls-28 {
        fill: #402053;
      }

      .cls-29 {
        fill: #45235b;
      }

      .cls-30 {
        fill: #7740a6;
      }

      .cls-31 {
        fill: #7b42ac;
      }

      .cls-32 {
        fill: #341a42;
      }

      .cls-33 {
        fill: #130711;
      }

      .cls-34 {
        fill: #562d75;
      }

      .cls-35 {
        fill: #7c43ad;
      }

      .cls-36 {
        fill: #5b307d;
      }

      .cls-37 {
        fill: #703c9b;
      }

      .cls-38 {
        fill: #68378f;
      }

      .cls-39 {
        fill: #64358a;
      }

      .cls-40 {
        fill: #572e77;
      }

      .cls-41 {
        fill: #5e3281;
      }

      .cls-42 {
        fill: #371b46;
      }

      .cls-43 {
        fill: #3a1d4b;
      }

      .cls-44 {
        fill: #361b44;
      }

      .cls-45 {
        fill: #7e44b0;
      }

      .cls-46 {
        fill: #693891;
      }

      .cls-47 {
        fill: #6c3a96;
      }

      .cls-48 {
        fill: #4e2969;
      }

      .cls-49 {
        fill: #391d49;
      }

      .cls-50 {
        fill: #753fa3;
      }

      .cls-51 {
        fill: #fbde92;
      }

      .cls-52 {
        fill: #552d74;
      }

      .cls-53 {
        fill: #512a6d;
      }

      .cls-54 {
        fill: #442359;
      }

      .cls-55 {
        fill: #65368b;
      }

      .cls-56 {
        fill: #623487;
      }

      .cls-57 {
        fill: #3d1f4f;
      }

      .cls-58 {
        fill: #532b70;
      }

      .cls-59 {
        clip-path: url(#clippath-1);
      }

      .cls-60 {
        clip-path: url(#clippath-2);
      }

      .cls-61 {
        fill: #47255e;
      }

      .cls-62 {
        fill: #683890;
      }

      .cls-63 {
        fill: #723d9f;
      }

      .cls-64 {
        fill: #7a42aa;
      }

      .cls-65 {
        fill: #f3b2c6;
      }

      .cls-66 {
        fill: #6a3993;
      }

      .cls-67 {
        fill: #48255f;
      }

      .cls-68 {
        fill: #6d3a97;
      }

      .cls-69 {
        fill: #67378e;
      }

      .cls-70 {
        fill: #4a2663;
      }

      .cls-71 {
        fill: #8045b3;
      }

      .cls-72 {
        fill: #3f2052;
      }

      .cls-73 {
        fill: #412155;
      }

      .cls-74 {
        fill: #7f45b2;
      }

      .cls-75 {
        fill: #743ea2;
      }

      .cls-76 {
        fill: #381c47;
      }

      .cls-77 {
        fill: #4c2766;
      }

      .cls-78 {
        fill: #6b3994;
      }

      .cls-79 {
        fill: #633488;
      }

      .cls-80 {
        fill: #4d2867;
      }

      .cls-81 {
        fill: #31183e;
      }

      .cls-82 {
        fill: #5f3282;
      }

      .cls-83 {
        fill: #743ea1;
      }

      .cls-84 {
        fill: #381c48;
      }

      .cls-85 {
        fill: #7740a5;
      }

      .cls-86 {
        fill: #623486;
      }

      .cls-87 {
        fill: #603383;
      }

      .cls-88 {
        fill: #7b42ab;
      }

      .cls-89 {
        fill: #44235a;
      }

      .cls-90 {
        fill: #7d43ae;
      }

      .cls-91 {
        fill: #4d2868;
      }

      .cls-92 {
        fill: #402154;
      }

      .cls-93 {
        fill: #582e78;
      }

      .cls-94 {
        fill: #7941a9;
      }

      .cls-95 {
        fill: #4f296b;
      }

      .cls-96 {
        fill: #613385;
      }

      .cls-97 {
        fill: #643589;
      }

      .cls-98 {
        fill: #603384;
      }

      .cls-99 {
        fill: #5d317f;
      }

      .cls-100 {
        fill: #5d3180;
      }

      .cls-101 {
        fill: #713d9d;
      }

      .cls-102 {
        fill: #7941a8;
      }

      .cls-103 {
        fill: #4b2765;
      }

      .cls-104 {
        fill: #4f296a;
      }

      .cls-105 {
        fill: #572e76;
      }

      .cls-106 {
        fill: #6a3892;
      }

      .cls-107 {
        fill: #482560;
      }

      .cls-108 {
        fill: #6f3b9a;
      }

      .cls-109 {
        fill: #331941;
      }

      .cls-110 {
        fill: #703c9c;
      }

      .cls-111 {
        fill: #32193f;
      }

      .cls-112 {
        fill: #733ea0;
      }

      .cls-113 {
        fill: #361b45;
      }

      .cls-114 {
        fill: #351a43;
      }

      .cls-115 {
        fill: #331940;
      }

      .cls-116 {
        fill: #5a2f7b;
      }

      .cls-117 {
        fill: #6e3b98;
      }

      .cls-118 {
        fill: #66368d;
      }

      .cls-119 {
        clip-path: url(#clippath);
      }

      .cls-120 {
        fill: #7f44b1;
      }

      .cls-121 {
        fill: #552c73;
      }

      .cls-122 {
        fill: #723d9e;
      }

      .cls-123 {
        fill: #5c317e;
      }

      .cls-124 {
        fill: #5b307c;
      }

      .cls-125 {
        fill: #763fa4;
      }
    </style>
    <clipPath id="clippath">
      <path class="cls-1" d="M14.97,27.67L26.26,1.76c.44-1.01,1.87-1.01,2.31,0l11.29,25.91c.36.83-.25,1.76-1.15,1.76h-22.58c-.91,0-1.52-.93-1.15-1.76Z"/>
    </clipPath>
    <clipPath id="clippath-1">
      <ellipse class="cls-1" cx="27.41" cy="29.43" rx="26.41" ry="8.49"/>
    </clipPath>
    <clipPath id="clippath-2">
      <path class="cls-1" d="M36.79,22.14L28.52,4.2c-.42-.91-1.79-.91-2.22,0l-8.27,17.94c-9.36,1.13-15.97,3.91-15.97,7.15,0,4.25,11.35,7.7,25.36,7.7s25.36-3.45,25.36-7.7c0-3.24-6.62-6.02-15.97-7.15Z"/>
    </clipPath>
  </defs>
  <g id="Layer_1-2" data-name="Layer 1">
    <path class="cls-33" d="M45.71,53.12c3.64-.91,6.76-2.97,7.54-6.36s-5.59-4.17-4.29-8.72,7.15-8.45,11.7-6.37,6.24,6.11,4.42,8.71-4.75-1.5-5.76-2.47c-1.15-1.1-2.25-2.76-3.99-.98s-1.6,2.05,1.81,5.81c2.44,2.68,1.7,4.92-.51,7.65-2.21,2.73-6.89,6.24-6.89,6.24l-4.03-3.51Z"/>
    <path class="cls-33" d="M49.74,57.63c-.23,0-.47-.08-.66-.25l-4.03-3.51c-.28-.24-.4-.63-.32-.99.09-.36.37-.65.73-.74,2.19-.55,5.98-2,6.81-5.61.2-.88-.36-1.48-1.69-2.65-1.46-1.28-3.46-3.04-2.58-6.11.81-2.82,3.13-5.42,6.06-6.77,2.42-1.12,4.91-1.2,7.02-.24,2.86,1.31,4.87,3.42,5.51,5.79.43,1.59.19,3.15-.69,4.41-.69.99-1.52,1.24-2.09,1.27-1.84.1-3.53-1.77-4.65-3.01-.21-.24-.4-.44-.54-.58-.15-.15-.31-.3-.46-.46-.47-.48-1-1.02-1.35-1.02-.15.01-.47.17-.77.48-.89.9-.85,1.02-.8,1.16.19.58,1.27,1.77,2.64,3.28,3.16,3.48,1.54,6.48-.47,8.95-2.26,2.79-6.87,6.26-7.07,6.41-.18.13-.39.2-.6.2ZM47.73,53.55l2.05,1.79c1.34-1.05,4.44-3.56,6.07-5.58,2.23-2.75,2.36-4.35.54-6.35-3.35-3.68-4.25-4.67-1.79-7.18.7-.72,1.44-1.08,2.2-1.08h0c1.2,0,2.04.87,2.78,1.63.14.14.28.28.41.42.17.16.39.4.64.69.69.77,2.12,2.36,3,2.36.01,0,.03,0,.04,0,.08,0,.29-.02.57-.42.54-.77.68-1.72.4-2.73-.48-1.77-2.13-3.45-4.42-4.49-1.56-.72-3.46-.63-5.35.24-2.38,1.1-4.33,3.25-4.97,5.5-.5,1.77.42,2.69,1.98,4.06,1.25,1.1,2.81,2.47,2.32,4.6-.69,2.98-2.97,5.26-6.5,6.56Z"/>
    <g class="cls-119">
      <rect class="cls-121" x="14.61" y="29.36" width="25.61" height=".06"/>
      <rect class="cls-52" x="14.61" y="29.2" width="25.61" height=".16"/>
      <rect class="cls-34" x="14.61" y="29.04" width="25.61" height=".16"/>
      <rect class="cls-105" x="14.61" y="28.87" width="25.61" height=".16"/>
      <rect class="cls-40" x="14.61" y="28.71" width="25.61" height=".16"/>
      <rect class="cls-93" x="14.61" y="28.54" width="25.61" height=".16"/>
      <rect class="cls-7" x="14.61" y="28.38" width="25.61" height=".16"/>
      <rect class="cls-15" x="14.61" y="28.22" width="25.61" height=".16"/>
      <rect class="cls-116" x="14.61" y="28.05" width="25.61" height=".16"/>
      <rect class="cls-124" x="14.61" y="27.89" width="25.61" height=".16"/>
      <rect class="cls-36" x="14.61" y="27.73" width="25.61" height=".16"/>
      <rect class="cls-123" x="14.61" y="27.56" width="25.61" height=".16"/>
      <rect class="cls-99" x="14.61" y="27.4" width="25.61" height=".16"/>
      <rect class="cls-100" x="14.61" y="27.23" width="25.61" height=".16"/>
      <rect class="cls-41" x="14.61" y="27.07" width="25.61" height=".16"/>
      <rect class="cls-82" x="14.61" y="26.91" width="25.61" height=".16"/>
      <rect class="cls-87" x="14.61" y="26.74" width="25.61" height=".16"/>
      <rect class="cls-98" x="14.61" y="26.58" width="25.61" height=".16"/>
      <rect class="cls-96" x="14.61" y="26.42" width="25.61" height=".16"/>
      <rect class="cls-86" x="14.61" y="26.25" width="25.61" height=".16"/>
      <rect class="cls-56" x="14.61" y="26.09" width="25.61" height=".16"/>
      <rect class="cls-79" x="14.61" y="25.93" width="25.61" height=".16"/>
      <rect class="cls-97" x="14.61" y="25.76" width="25.61" height=".16"/>
      <rect class="cls-39" x="14.61" y="25.6" width="25.61" height=".16"/>
      <rect class="cls-55" x="14.61" y="25.43" width="25.61" height=".16"/>
      <rect class="cls-10" x="14.61" y="25.27" width="25.61" height=".16"/>
      <rect class="cls-118" x="14.61" y="25.11" width="25.61" height=".16"/>
      <rect class="cls-69" x="14.61" y="24.94" width="25.61" height=".16"/>
      <rect class="cls-38" x="14.61" y="24.78" width="25.61" height=".16"/>
      <rect class="cls-62" x="14.61" y="24.62" width="25.61" height=".16"/>
      <rect class="cls-46" x="14.61" y="24.45" width="25.61" height=".16"/>
      <rect class="cls-106" x="14.61" y="24.29" width="25.61" height=".16"/>
      <rect class="cls-66" x="14.61" y="24.12" width="25.61" height=".16"/>
      <rect class="cls-78" x="14.61" y="23.96" width="25.61" height=".16"/>
      <rect class="cls-2" x="14.61" y="23.8" width="25.61" height=".16"/>
      <rect class="cls-47" x="14.61" y="23.63" width="25.61" height=".16"/>
      <rect class="cls-68" x="14.61" y="23.47" width="25.61" height=".16"/>
      <rect class="cls-117" x="14.61" y="23.31" width="25.61" height=".16"/>
      <rect class="cls-9" x="14.61" y="23.14" width="25.61" height=".16"/>
      <rect class="cls-108" x="14.61" y="22.98" width="25.61" height=".16"/>
      <rect class="cls-37" x="14.61" y="22.81" width="25.61" height=".16"/>
      <rect class="cls-110" x="14.61" y="22.65" width="25.61" height=".16"/>
      <rect class="cls-101" x="14.61" y="22.49" width="25.61" height=".16"/>
      <rect class="cls-122" x="14.61" y="22.32" width="25.61" height=".16"/>
      <rect class="cls-63" x="14.61" y="22.16" width="25.61" height=".16"/>
      <rect class="cls-112" x="14.61" y="22" width="25.61" height=".16"/>
      <rect class="cls-83" x="14.61" y="21.83" width="25.61" height=".16"/>
      <rect class="cls-75" x="14.61" y="21.67" width="25.61" height=".16"/>
      <rect class="cls-50" x="14.61" y="21.5" width="25.61" height=".16"/>
      <rect class="cls-125" x="14.61" y="21.34" width="25.61" height=".16"/>
      <rect class="cls-85" x="14.61" y="21.18" width="25.61" height=".16"/>
      <rect class="cls-30" x="14.61" y="21.01" width="25.61" height=".16"/>
      <rect class="cls-14" x="14.61" y="20.85" width="25.61" height=".16"/>
      <rect class="cls-102" x="14.61" y="20.69" width="25.61" height=".16"/>
      <rect class="cls-94" x="14.61" y="20.52" width="25.61" height=".16"/>
      <rect class="cls-64" x="14.61" y="20.36" width="25.61" height=".16"/>
      <rect class="cls-88" x="14.61" y="20.2" width="25.61" height=".16"/>
      <rect class="cls-31" x="14.61" y="20.03" width="25.61" height=".16"/>
      <rect class="cls-35" x="14.61" y="19.87" width="25.61" height=".16"/>
      <rect class="cls-90" x="14.61" y="19.7" width="25.61" height=".16"/>
      <rect class="cls-11" x="14.61" y="19.54" width="25.61" height=".16"/>
      <rect class="cls-45" x="14.61" y="19.38" width="25.61" height=".16"/>
      <rect class="cls-120" x="14.61" y="19.21" width="25.61" height=".16"/>
      <rect class="cls-74" x="14.61" y="19.05" width="25.61" height=".16"/>
      <rect class="cls-71" x="14.61" y="18.89" width="25.61" height=".16"/>
      <rect class="cls-71" x="14.61" y=".75" width="25.61" height="18.14"/>
    </g>
    <path class="cls-33" d="M38.7,30.43h-22.58c-.76,0-1.47-.38-1.89-1.02-.42-.64-.49-1.44-.18-2.14L25.34,1.36c.36-.84,1.16-1.36,2.07-1.36s1.71.52,2.07,1.36l11.29,25.91c.3.7.24,1.5-.18,2.14-.42.64-1.12,1.02-1.89,1.02ZM27.41,2c-.08,0-.18.03-.24.16l-11.29,25.91h0c-.05.11-.01.19.02.24.03.05.1.12.22.12h22.58c.12,0,.18-.06.22-.12.03-.05.07-.14.02-.24L27.65,2.16c-.06-.13-.16-.16-.24-.16ZM14.97,27.67h0,0Z"/>
    <path class="cls-51" d="M21.5,12.72c-.73-.68-1.6-1.13-2.51-1.33.55,1.81.15,3.86-1.24,5.35s-3.4,2.03-5.25,1.6c.27.89.77,1.73,1.5,2.41,2.22,2.07,5.69,1.95,7.76-.27s1.95-5.69-.27-7.76Z"/>
    <path class="cls-33" d="M17.75,23.22c-1.59,0-3.18-.58-4.43-1.74-.83-.78-1.45-1.76-1.78-2.85-.1-.34-.02-.71.23-.97s.61-.37.96-.29c1.56.36,3.21-.14,4.29-1.31,1.09-1.17,1.48-2.84,1.01-4.38-.1-.34-.02-.71.23-.97.24-.26.61-.37.96-.29,1.11.25,2.13.8,2.97,1.58,1.27,1.18,2,2.79,2.06,4.52.06,1.73-.56,3.38-1.74,4.65-1.28,1.37-3.01,2.06-4.75,2.06ZM14.18,19.46c.15.2.32.39.5.56,1.81,1.69,4.66,1.59,6.35-.22.82-.88,1.25-2.02,1.2-3.22-.04-1.2-.55-2.31-1.42-3.13h0c-.18-.17-.38-.33-.59-.46,0,1.62-.61,3.22-1.74,4.43-1.13,1.21-2.68,1.93-4.3,2.04Z"/>
    <g class="cls-59">
      <rect class="cls-81" x="1" y="37.88" width="52.82" height=".04"/>
      <rect class="cls-111" x="1" y="37.71" width="52.82" height=".16"/>
      <rect class="cls-115" x="1" y="37.55" width="52.82" height=".16"/>
      <rect class="cls-109" x="1" y="37.39" width="52.82" height=".16"/>
      <rect class="cls-32" x="1" y="37.22" width="52.82" height=".16"/>
      <rect class="cls-114" x="1" y="37.06" width="52.82" height=".16"/>
      <rect class="cls-44" x="1" y="36.89" width="52.82" height=".16"/>
      <rect class="cls-113" x="1" y="36.73" width="52.82" height=".16"/>
      <rect class="cls-42" x="1" y="36.57" width="52.82" height=".16"/>
      <rect class="cls-76" x="1" y="36.4" width="52.82" height=".16"/>
      <rect class="cls-84" x="1" y="36.24" width="52.82" height=".16"/>
      <rect class="cls-49" x="1" y="36.08" width="52.82" height=".16"/>
      <rect class="cls-19" x="1" y="35.91" width="52.82" height=".16"/>
      <rect class="cls-43" x="1" y="35.75" width="52.82" height=".16"/>
      <rect class="cls-17" x="1" y="35.58" width="52.82" height=".16"/>
      <rect class="cls-23" x="1" y="35.42" width="52.82" height=".16"/>
      <rect class="cls-4" x="1" y="35.26" width="52.82" height=".16"/>
      <rect class="cls-57" x="1" y="35.09" width="52.82" height=".16"/>
      <rect class="cls-6" x="1" y="34.93" width="52.82" height=".16"/>
      <rect class="cls-25" x="1" y="34.77" width="52.82" height=".16"/>
      <rect class="cls-72" x="1" y="34.6" width="52.82" height=".16"/>
      <rect class="cls-28" x="1" y="34.44" width="52.82" height=".16"/>
      <rect class="cls-92" x="1" y="34.27" width="52.82" height=".16"/>
      <rect class="cls-73" x="1" y="34.11" width="52.82" height=".16"/>
      <rect class="cls-26" x="1" y="33.95" width="52.82" height=".16"/>
      <rect class="cls-3" x="1" y="33.78" width="52.82" height=".16"/>
      <rect class="cls-21" x="1" y="33.62" width="52.82" height=".16"/>
      <rect class="cls-54" x="1" y="33.46" width="52.82" height=".16"/>
      <rect class="cls-89" x="1" y="33.29" width="52.82" height=".16"/>
      <rect class="cls-29" x="1" y="33.13" width="52.82" height=".16"/>
      <rect class="cls-13" x="1" y="32.96" width="52.82" height=".16"/>
      <rect class="cls-12" x="1" y="32.8" width="52.82" height=".16"/>
      <rect class="cls-61" x="1" y="32.64" width="52.82" height=".16"/>
      <rect class="cls-67" x="1" y="32.47" width="52.82" height=".16"/>
      <rect class="cls-107" x="1" y="32.31" width="52.82" height=".16"/>
      <rect class="cls-5" x="1" y="32.15" width="52.82" height=".16"/>
      <rect class="cls-70" x="1" y="31.98" width="52.82" height=".16"/>
      <rect class="cls-24" x="1" y="31.82" width="52.82" height=".16"/>
      <rect class="cls-103" x="1" y="31.66" width="52.82" height=".16"/>
      <rect class="cls-77" x="1" y="31.49" width="52.82" height=".16"/>
      <rect class="cls-80" x="1" y="31.33" width="52.82" height=".16"/>
      <rect class="cls-91" x="1" y="31.16" width="52.82" height=".16"/>
      <rect class="cls-48" x="1" y="31" width="52.82" height=".16"/>
      <rect class="cls-104" x="1" y="30.84" width="52.82" height=".16"/>
      <rect class="cls-95" x="1" y="30.67" width="52.82" height=".16"/>
      <rect class="cls-18" x="1" y="30.51" width="52.82" height=".16"/>
      <rect class="cls-53" x="1" y="30.35" width="52.82" height=".16"/>
      <rect class="cls-20" x="1" y="30.18" width="52.82" height=".16"/>
      <rect class="cls-27" x="1" y="30.02" width="52.82" height=".16"/>
      <rect class="cls-58" x="1" y="29.85" width="52.82" height=".16"/>
      <rect class="cls-16" x="1" y="29.69" width="52.82" height=".16"/>
      <rect class="cls-8" x="1" y="29.53" width="52.82" height=".16"/>
      <rect class="cls-121" x="1" y="29.36" width="52.82" height=".16"/>
      <rect class="cls-52" x="1" y="29.2" width="52.82" height=".16"/>
      <rect class="cls-34" x="1" y="29.04" width="52.82" height=".16"/>
      <rect class="cls-105" x="1" y="28.87" width="52.82" height=".16"/>
      <rect class="cls-40" x="1" y="28.71" width="52.82" height=".16"/>
      <rect class="cls-93" x="1" y="28.54" width="52.82" height=".16"/>
      <rect class="cls-7" x="1" y="28.38" width="52.82" height=".16"/>
      <rect class="cls-15" x="1" y="28.22" width="52.82" height=".16"/>
      <rect class="cls-116" x="1" y="28.05" width="52.82" height=".16"/>
      <rect class="cls-124" x="1" y="27.89" width="52.82" height=".16"/>
      <rect class="cls-36" x="1" y="27.73" width="52.82" height=".16"/>
      <rect class="cls-123" x="1" y="27.56" width="52.82" height=".16"/>
      <rect class="cls-99" x="1" y="27.4" width="52.82" height=".16"/>
      <rect class="cls-100" x="1" y="27.23" width="52.82" height=".16"/>
      <rect class="cls-41" x="1" y="27.07" width="52.82" height=".16"/>
      <rect class="cls-82" x="1" y="26.91" width="52.82" height=".16"/>
      <rect class="cls-87" x="1" y="26.74" width="52.82" height=".16"/>
      <rect class="cls-98" x="1" y="26.58" width="52.82" height=".16"/>
      <rect class="cls-96" x="1" y="26.42" width="52.82" height=".16"/>
      <rect class="cls-86" x="1" y="26.25" width="52.82" height=".16"/>
      <rect class="cls-56" x="1" y="26.09" width="52.82" height=".16"/>
      <rect class="cls-79" x="1" y="25.93" width="52.82" height=".16"/>
      <rect class="cls-97" x="1" y="25.76" width="52.82" height=".16"/>
      <rect class="cls-39" x="1" y="25.6" width="52.82" height=".16"/>
      <rect class="cls-55" x="1" y="25.43" width="52.82" height=".16"/>
      <rect class="cls-10" x="1" y="25.27" width="52.82" height=".16"/>
      <rect class="cls-118" x="1" y="25.11" width="52.82" height=".16"/>
      <rect class="cls-69" x="1" y="24.94" width="52.82" height=".16"/>
      <rect class="cls-38" x="1" y="24.78" width="52.82" height=".16"/>
      <rect class="cls-62" x="1" y="24.62" width="52.82" height=".16"/>
      <rect class="cls-46" x="1" y="24.45" width="52.82" height=".16"/>
      <rect class="cls-106" x="1" y="24.29" width="52.82" height=".16"/>
      <rect class="cls-66" x="1" y="24.12" width="52.82" height=".16"/>
      <rect class="cls-78" x="1" y="23.96" width="52.82" height=".16"/>
      <rect class="cls-2" x="1" y="23.8" width="52.82" height=".16"/>
      <rect class="cls-47" x="1" y="23.63" width="52.82" height=".16"/>
      <rect class="cls-68" x="1" y="23.47" width="52.82" height=".16"/>
      <rect class="cls-117" x="1" y="23.31" width="52.82" height=".16"/>
      <rect class="cls-9" x="1" y="23.14" width="52.82" height=".16"/>
      <rect class="cls-108" x="1" y="22.98" width="52.82" height=".16"/>
      <rect class="cls-37" x="1" y="22.81" width="52.82" height=".16"/>
      <rect class="cls-110" x="1" y="22.65" width="52.82" height=".16"/>
      <rect class="cls-101" x="1" y="22.49" width="52.82" height=".16"/>
      <rect class="cls-122" x="1" y="22.32" width="52.82" height=".16"/>
      <rect class="cls-63" x="1" y="22.16" width="52.82" height=".16"/>
      <rect class="cls-112" x="1" y="22" width="52.82" height=".16"/>
      <rect class="cls-83" x="1" y="21.83" width="52.82" height=".16"/>
      <rect class="cls-75" x="1" y="21.67" width="52.82" height=".16"/>
      <rect class="cls-50" x="1" y="21.5" width="52.82" height=".16"/>
      <rect class="cls-125" x="1" y="21.34" width="52.82" height=".16"/>
      <rect class="cls-85" x="1" y="21.18" width="52.82" height=".16"/>
      <rect class="cls-30" x="1" y="21.01" width="52.82" height=".16"/>
      <rect class="cls-14" x="1" y="20.94" width="52.82" height=".07"/>
    </g>
    <path class="cls-33" d="M27.41,38.92c-13.29,0-27.41-3.33-27.41-9.49s14.12-9.49,27.41-9.49,27.41,3.33,27.41,9.49-14.12,9.49-27.41,9.49ZM27.41,21.94c-14.98,0-25.41,3.95-25.41,7.49s10.44,7.49,25.41,7.49,25.41-3.95,25.41-7.49-10.44-7.49-25.41-7.49Z"/>
    <g class="cls-60">
      <path class="cls-22" d="M29.36,3.07h0c0,2.22-1.8,4.01-4.01,4.01,2.22,0,4.01,1.8,4.01,4.01h0c0-2.22,1.8-4.01,4.01-4.01-2.22,0-4.01-1.8-4.01-4.01ZM29.36,8.7c0-.89-.72-1.61-1.61-1.61.89,0,1.61-.72,1.61-1.61,0,.89.72,1.61,1.61,1.61-.89,0-1.61.72-1.61,1.61Z"/>
      <path class="cls-22" d="M27.41,14.2h0c0,1.55-1.26,2.81-2.81,2.81,1.55,0,2.81,1.26,2.81,2.81h0c0-1.55,1.26-2.81,2.81-2.81-1.55,0-2.81-1.26-2.81-2.81ZM27.41,18.14c0-.62-.51-1.13-1.13-1.13.62,0,1.13-.51,1.13-1.13,0,.62.51,1.13,1.13,1.13-.62,0-1.13.51-1.13,1.13Z"/>
      <path class="cls-22" d="M21.88,22.83h0c0,1-.81,1.82-1.82,1.82,1,0,1.82.81,1.82,1.82h0c0-1,.81-1.82,1.82-1.82-1,0-1.82-.81-1.82-1.82ZM21.88,25.38c0-.4-.33-.73-.73-.73.4,0,.73-.33.73-.73,0,.4.33.73.73.73-.4,0-.73.33-.73.73Z"/>
      <path class="cls-22" d="M46,25.26h0c0,1.22-.99,2.2-2.2,2.2,1.22,0,2.2.99,2.2,2.2h0c0-1.22.99-2.2,2.2-2.2-1.22,0-2.2-.99-2.2-2.2ZM46,28.35c0-.49-.4-.89-.89-.89.49,0,.89-.4.89-.89,0,.49.4.89.89.89-.49,0-.89.4-.89.89Z"/>
      <path class="cls-22" d="M5.01,27.09h0c0,2.22-1.8,4.01-4.01,4.01,2.22,0,4.01,1.8,4.01,4.01h0c0-2.22,1.8-4.01,4.01-4.01-2.22,0-4.01-1.8-4.01-4.01ZM5.01,32.72c0-.89-.72-1.61-1.61-1.61.89,0,1.61-.72,1.61-1.61,0,.89.72,1.61,1.61,1.61-.89,0-1.61.72-1.61,1.61Z"/>
      <rect class="cls-22" x="9.02" y="24.3" width="3.23" height="3.23" rx="1.61" ry="1.61"/>
      <rect class="cls-22" x="30.03" y="12.68" width="3.23" height="3.23" rx="1.61" ry="1.61"/>
      <rect class="cls-22" x="23.52" y="8.83" width="3.23" height="3.23" rx="1.61" ry="1.61"/>
      <rect class="cls-22" x="26.73" y="21.64" width="3.23" height="3.23" rx="1.61" ry="1.61"/>
      <rect class="cls-22" x="33.03" y="23.39" width="3.23" height="3.23" rx="1.61" ry="1.61"/>
      <rect class="cls-22" x="40.66" y="32.61" width="3.23" height="3.23" rx="1.61" ry="1.61"/>
    </g>
    <path class="cls-33" d="M45.33,48.06c0-6.27-2.2-11.91-5.71-15.87l.73-6.87c.13-1.21-1.36-1.88-2.18-.98l-3.54,3.87c-2.21-1.18-4.65-1.84-7.22-1.84s-5.01.66-7.22,1.84l-3.54-3.87c-.82-.9-2.31-.23-2.18.98l.73,6.87c-3.51,3.96-5.71,9.6-5.71,15.87,0,1.55.14,3.06.39,4.52h35.04c.25-1.46.39-2.97.39-4.52Z"/>
    <path class="cls-33" d="M44.93,53.58H9.89c-.49,0-.9-.35-.98-.83-.27-1.54-.41-3.12-.41-4.69,0-6.16,2.01-11.89,5.67-16.19l-.69-6.43c-.11-.99.41-1.89,1.32-2.3.9-.41,1.92-.2,2.59.53l3.03,3.31c4.46-2.13,9.53-2.13,13.99,0l3.03-3.31c.67-.73,1.69-.94,2.59-.53s1.42,1.31,1.32,2.3l-.69,6.43c3.66,4.3,5.67,10.03,5.67,16.19,0,1.57-.14,3.15-.41,4.69-.08.48-.5.83-.98.83ZM10.74,51.58h33.34c.16-1.16.25-2.34.25-3.52,0-5.75-1.99-11.29-5.46-15.2-.19-.21-.28-.49-.25-.77l.73-6.87c.01-.12-.04-.21-.15-.26-.11-.05-.21-.03-.3.06l-3.54,3.87c-.31.34-.81.42-1.21.21-4.28-2.29-9.22-2.29-13.5,0-.4.21-.9.13-1.21-.21l-3.54-3.87c-.08-.09-.18-.11-.3-.06s-.16.14-.15.26l.73,6.87c.03.28-.06.56-.25.77-3.47,3.91-5.46,9.45-5.46,15.2,0,1.17.08,2.35.25,3.52Z"/>
    <path class="cls-65" d="M38.63,32.22l.56-5.01c.04-.4-.44-.63-.72-.34l-2.96,3.08c-.17.18-.15.46.04.62l2.41,1.93c.26.21.64.05.68-.28Z"/>
    <path class="cls-65" d="M16.19,32.22l-.56-5.01c-.04-.4.44-.63.72-.34l2.96,3.08c.17.18.15.46-.04.62l-2.41,1.93c-.26.21-.64.05-.68-.28Z"/>
    <line class="cls-65" x1="19.67" y1="27.66" x2="21.57" y2="29.67"/>
    <path class="cls-33" d="M21.57,30.67c-.27,0-.53-.11-.73-.31l-1.89-2.01c-.38-.4-.36-1.03.04-1.41.4-.38,1.03-.36,1.41.04l1.89,2.01c.38.4.36,1.03-.04,1.41-.19.18-.44.27-.69.27Z"/>
    <line class="cls-65" x1="35.15" y1="27.66" x2="33.26" y2="29.67"/>
    <path class="cls-33" d="M33.26,30.67c-.25,0-.49-.09-.69-.27-.4-.38-.42-1.01-.04-1.41l1.89-2.01c.38-.4,1.01-.42,1.41-.04.4.38.42,1.01.04,1.41l-1.89,2.01c-.2.21-.46.31-.73.31Z"/>
    <ellipse class="cls-22" cx="24.83" cy="36.71" rx=".7" ry="1.31"/>
    <ellipse class="cls-22" cx="29.99" cy="36.71" rx=".7" ry="1.31"/>
    <path class="cls-22" d="M26.03,44.26c-.1,0-.2-.03-.29-.09-.23-.16-.28-.47-.12-.7l.17-.25c.53-.77.89-1.62,1.06-2.54l.06-.34c.05-.27.32-.45.58-.4.27.05.45.31.4.58l-.06.34c-.2,1.06-.61,2.04-1.23,2.93l-.17.25c-.1.14-.25.21-.41.21Z"/>
    <path class="cls-22" d="M28.8,44.26c-.16,0-.31-.07-.41-.21l-.16-.23c-.62-.88-1.03-1.87-1.23-2.93l-.07-.36c-.05-.27.13-.53.4-.58.27-.05.53.13.58.4l.07.36c.17.92.53,1.77,1.07,2.54l.16.23c.16.23.1.54-.12.7-.09.06-.19.09-.29.09Z"/>
    <ellipse class="cls-65" cx="27.41" cy="40.15" rx=".54" ry=".29"/>
    <line class="cls-65" x1="33.72" y1="41.52" x2="36.65" y2="40.29"/>
    <path class="cls-22" d="M33.72,42.02c-.19,0-.38-.11-.46-.31-.11-.25.01-.55.27-.66l2.93-1.23c.25-.11.55.01.66.27.11.25-.01.55-.27.66l-2.93,1.23c-.06.03-.13.04-.19.04Z"/>
    <line class="cls-65" x1="33.72" y1="43.79" x2="36.65" y2="45.02"/>
    <path class="cls-22" d="M36.65,45.52c-.06,0-.13-.01-.19-.04l-2.93-1.23c-.25-.11-.37-.4-.27-.66.11-.25.4-.37.66-.27l2.93,1.23c.25.11.37.4.27.66-.08.19-.27.31-.46.31Z"/>
    <line class="cls-65" x1="21.1" y1="41.52" x2="18.18" y2="40.29"/>
    <path class="cls-22" d="M21.1,42.02c-.06,0-.13-.01-.19-.04l-2.93-1.23c-.25-.11-.37-.4-.27-.66.11-.25.4-.37.66-.27l2.93,1.23c.25.11.37.4.27.66-.08.19-.27.31-.46.31Z"/>
    <line class="cls-65" x1="21.1" y1="43.79" x2="18.18" y2="45.02"/>
    <path class="cls-22" d="M18.18,45.52c-.19,0-.38-.11-.46-.31-.11-.25.01-.55.27-.66l2.93-1.23c.25-.11.55.01.66.27.11.25-.01.55-.27.66l-2.93,1.23c-.06.03-.13.04-.19.04Z"/>
  </g>
</svg>