<?xml version="1.0" encoding="UTF-8"?>
<svg id="Layer_2" data-name="Layer 2" xmlns="http://www.w3.org/2000/svg" viewBox="0 0 66.76 58.98">
  <defs>
    <style>
      .cls-1 {
        fill: #ac101b;
      }

      .cls-2 {
        fill: #130711;
      }

      .cls-3 {
        fill: #fce5ae;
      }

      .cls-4 {
        fill: #d02d58;
      }
    </style>
  </defs>
  <g id="Layer_1-2" data-name="Layer 1">
    <g>
      <g>
        <path class="cls-4" d="M53.01,43.74s12.87,10.94,11.88,13.1-18.92,1.56-38.72-4.25C6.36,46.77,1.34,41.71,1,39.15s17.07-4.52,17.07-4.52l34.93,9.1Z"/>
        <path class="cls-4" d="M53.01,43.74l2.43-27.55c.06-.64.84-.91,1.28-.44l3.64,3.86c1.42,1.5,2.53,3.26,3.29,5.17h0s0,0,0,0c.27-3.1-.28-6.21-1.61-9.02l-6.28-13.29c-.58-1.23-2.2-1.53-3.18-.6L18.08,34.63s6.09,4.04,16.36,6.77,18.57,2.34,18.57,2.34Z"/>
        <path class="cls-1" d="M62.56,22.28c-.11-.18-4.96-11.49-7.34-10.91-4.36,1.06-5.69,26.5-5.69,26.5v6.39l13.49,13.64,1.75-.8-10.22-12.74-1.83-2.91,1.7-12.24,1.51-14.04,3.3,2.58,3.33,4.53Z"/>
        <path class="cls-2" d="M52.4,58.68c-7.62-.67-17.42-2.47-26.51-5.14C4.17,47.17.35,41.88.01,39.28c-.04-.31,0-.77.37-1.26,1.91-2.44,13.94-3.97,17.58-4.38l.18-.02.18.05,35.15,9.16.17.15c8.92,7.59,13,12.39,12.14,14.28-.77,1.68-6.09,2.08-13.4,1.43ZM2.03,39.18c.28,1.05,2.74,6.09,24.42,12.45,18.93,5.55,35.27,6.04,37.47,4.78-.44-1.65-6.1-7.25-11.38-11.76l-34.53-9c-6.99.8-14.88,2.38-15.98,3.53Z"/>
        <path class="cls-2" d="M46.41,44.51c-3.28-.29-7.54-.89-12.23-2.14-10.31-2.74-16.4-6.73-16.66-6.9l-1.05-.69L51.89,1.15c.71-.67,1.66-.95,2.62-.77.96.18,1.74.79,2.16,1.67l6.28,13.29c1.4,2.97,1.99,6.26,1.7,9.53l-.37,4.22-1.55-3.94c-.71-1.81-1.75-3.44-3.08-4.86l-3.25-3.45-2.45,27.85-.87.04c-.19,0-2.72.12-6.65-.23ZM19.72,34.45c2.16,1.24,7.45,3.98,14.98,5.98,8.12,2.16,15.03,2.33,17.4,2.32l2.35-26.66c.06-.69.51-1.27,1.16-1.49.66-.23,1.36-.06,1.84.45l3.64,3.86c.51.54.99,1.11,1.42,1.71-.25-1.53-.71-3.03-1.38-4.44l-6.28-13.29c-.14-.29-.4-.5-.72-.56-.32-.06-.64.04-.87.26l-33.54,31.86Z"/>
        <path class="cls-3" d="M53.49,38.35s-10.13-.41-15.39-1.95c-5.26-1.55-15.66-5.9-15.66-5.9l-4.35,4.13s8.32,5.03,15.95,6.65c7.62,1.62,9.83,2.02,12.27,2.2s6.72.25,6.72.25l.47-5.39Z"/>
        <path class="cls-2" d="M45.68,44.44c-2.3-.2-4.72-.65-11.86-2.17-7.7-1.64-15.91-6.57-16.26-6.78l-1.12-.68,5.77-5.48.6.25c.1.04,10.41,4.34,15.56,5.86,5.08,1.5,15.05,1.91,15.15,1.91l1.05.04-.65,7.36-.93-.02c-.18,0-4.34-.07-6.77-.25-.18-.01-.36-.03-.54-.04ZM19.74,34.43c2.52,1.4,8.76,4.66,14.49,5.88,7.6,1.62,9.74,2.01,12.14,2.18,1.7.12,4.34.2,5.73.23l.3-3.42c-2.75-.15-10.22-.66-14.59-1.94-4.58-1.35-12.85-4.73-15.16-5.68l-2.91,2.76Z"/>
      </g>
      <g>
        <path class="cls-4" d="M53.03,43.42s12.87,10.94,11.88,13.1-18.92,1.56-38.72-4.25C6.38,46.45,1.36,41.39,1.02,38.83s17.07-4.52,17.07-4.52l34.93,9.1Z"/>
        <path class="cls-4" d="M53.03,43.42l2.43-27.55c.06-.64.84-.91,1.28-.44l3.64,3.86c1.42,1.5,2.53,3.26,3.29,5.17h0s0,0,0,0c.27-3.1-.28-6.21-1.61-9.02l-6.28-13.29c-.58-1.23-2.2-1.53-3.18-.6L18.1,34.31s6.09,4.04,16.36,6.77,18.57,2.34,18.57,2.34Z"/>
        <path class="cls-1" d="M62.58,21.96c-.11-.18-4.96-11.49-7.34-10.91-4.36,1.06-5.69,26.5-5.69,26.5v6.39l13.49,13.64,1.75-.8-10.22-12.74-1.83-2.91,1.7-12.24,1.51-14.04,3.3,2.58,3.33,4.53Z"/>
        <path class="cls-2" d="M52.41,58.36c-7.62-.67-17.42-2.47-26.51-5.14C4.19,46.85.37,41.55.03,38.96c-.04-.31,0-.77.37-1.26,1.91-2.44,13.94-3.97,17.58-4.38l.18-.02.18.05,35.15,9.16.17.15c8.92,7.59,13,12.39,12.14,14.28-.77,1.68-6.09,2.08-13.4,1.43ZM2.04,38.85c.28,1.05,2.74,6.09,24.42,12.45,18.93,5.55,35.27,6.04,37.47,4.78-.44-1.65-6.1-7.25-11.38-11.76l-34.53-9c-6.99.8-14.88,2.38-15.98,3.53Z"/>
        <path class="cls-2" d="M46.43,44.19c-3.28-.29-7.54-.89-12.23-2.14-10.31-2.74-16.4-6.73-16.66-6.9l-1.05-.69L51.9.83c.71-.67,1.66-.95,2.62-.77.96.18,1.74.79,2.16,1.67l6.28,13.29c1.4,2.97,1.99,6.26,1.7,9.53l-.37,4.22-1.55-3.94c-.71-1.81-1.75-3.44-3.08-4.86l-3.25-3.45-2.45,27.85-.87.04c-.19,0-2.72.12-6.65-.23ZM19.74,34.13c2.16,1.24,7.45,3.98,14.98,5.98,8.12,2.16,15.03,2.33,17.4,2.32l2.35-26.66c.06-.69.51-1.27,1.16-1.49.66-.23,1.36-.06,1.84.45l3.64,3.86c.51.54.99,1.11,1.42,1.71-.25-1.53-.71-3.03-1.38-4.44l-6.28-13.29c-.14-.29-.4-.5-.72-.56-.32-.06-.64.04-.87.26l-33.54,31.86Z"/>
        <path class="cls-3" d="M53.5,38.03s-10.13-.41-15.39-1.95c-5.26-1.55-15.66-5.9-15.66-5.9l-4.35,4.13s8.32,5.03,15.95,6.65c7.62,1.62,9.83,2.02,12.27,2.2s6.72.25,6.72.25l.47-5.39Z"/>
        <path class="cls-2" d="M45.7,44.12c-2.3-.2-4.72-.65-11.86-2.17-7.7-1.64-15.91-6.57-16.26-6.78l-1.12-.68,5.77-5.48.6.25c.1.04,10.41,4.34,15.56,5.86,5.08,1.5,15.05,1.91,15.15,1.91l1.05.04-.65,7.36-.93-.02c-.18,0-4.34-.07-6.77-.25-.18-.01-.36-.03-.54-.04ZM19.76,34.11c2.52,1.4,8.76,4.66,14.49,5.88,7.6,1.62,9.74,2.01,12.14,2.18,1.7.12,4.34.2,5.73.23l.3-3.42c-2.75-.15-10.22-.66-14.59-1.94-4.58-1.35-12.85-4.73-15.16-5.68l-2.91,2.76Z"/>
      </g>
      <path class="cls-2" d="M64.29,37.47v-10.31h-.75v10.31c-.49.86-1.4,1.45-2.46,1.45,1.57,0,2.84,1.27,2.84,2.84,0-1.57,1.27-2.84,2.84-2.84-1.06,0-1.98-.59-2.46-1.45ZM63.92,40.06c0-.63-.51-1.14-1.14-1.14.63,0,1.14-.51,1.14-1.14,0,.63.51,1.14,1.14,1.14-.63,0-1.14.51-1.14,1.14Z"/>
    </g>
  </g>
</svg>