<?xml version="1.0" encoding="UTF-8"?>
<svg id="Layer_2" data-name="Layer 2" xmlns="http://www.w3.org/2000/svg" xmlns:xlink="http://www.w3.org/1999/xlink" viewBox="0 0 126.35 112.97">
  <defs>
    <style>
      .cls-1 {
        fill: none;
      }

      .cls-2 {
        fill: #6c3995;
      }

      .cls-3 {
        fill: #422257;
      }

      .cls-4 {
        fill: #3c1e4e;
      }

      .cls-5 {
        fill: #492661;
      }

      .cls-6 {
        fill: #3e1f50;
      }

      .cls-7 {
        fill: #592f79;
      }

      .cls-8 {
        fill: #542c72;
      }

      .cls-9 {
        fill: #6e3b99;
      }

      .cls-10 {
        fill: #66368c;
      }

      .cls-11 {
        fill: #7d43af;
      }

      .cls-12 {
        fill: #46245d;
      }

      .cls-13 {
        fill: #46245c;
      }

      .cls-14 {
        fill: #7840a7;
      }

      .cls-15 {
        fill: #592f7a;
      }

      .cls-16 {
        fill: #532c71;
      }

      .cls-17 {
        fill: #3b1e4c;
      }

      .cls-18 {
        fill: #502a6c;
      }

      .cls-19 {
        fill: #3a1d4a;
      }

      .cls-20 {
        fill: #512a6e;
      }

      .cls-21 {
        fill: #432258;
      }

      .cls-22 {
        fill: #eee8f6;
      }

      .cls-23 {
        fill: #3c1e4d;
      }

      .cls-24 {
        fill: #4b2764;
      }

      .cls-25 {
        fill: #3e2051;
      }

      .cls-26 {
        fill: #422256;
      }

      .cls-27 {
        fill: #522b6f;
      }

      .cls-28 {
        fill: #402053;
      }

      .cls-29 {
        fill: #45235b;
      }

      .cls-30 {
        fill: #7740a6;
      }

      .cls-31 {
        fill: #7b42ac;
      }

      .cls-32 {
        fill: #341a42;
      }

      .cls-33 {
        fill: #130711;
      }

      .cls-34 {
        fill: #562d75;
      }

      .cls-35 {
        fill: #7c43ad;
      }

      .cls-36 {
        fill: #5b307d;
      }

      .cls-37 {
        fill: #703c9b;
      }

      .cls-38 {
        fill: #68378f;
      }

      .cls-39 {
        fill: #64358a;
      }

      .cls-40 {
        fill: #572e77;
      }

      .cls-41 {
        fill: #5e3281;
      }

      .cls-42 {
        fill: #371b46;
      }

      .cls-43 {
        fill: #3a1d4b;
      }

      .cls-44 {
        fill: #361b44;
      }

      .cls-45 {
        fill: #7e44b0;
      }

      .cls-46 {
        fill: #693891;
      }

      .cls-47 {
        fill: #6c3a96;
      }

      .cls-48 {
        fill: #4e2969;
      }

      .cls-49 {
        fill: #391d49;
      }

      .cls-50 {
        fill: #753fa3;
      }

      .cls-51 {
        fill: #fbde92;
      }

      .cls-52 {
        fill: #552d74;
      }

      .cls-53 {
        fill: #512a6d;
      }

      .cls-54 {
        fill: #442359;
      }

      .cls-55 {
        fill: #65368b;
      }

      .cls-56 {
        fill: #623487;
      }

      .cls-57 {
        fill: #3d1f4f;
      }

      .cls-58 {
        fill: #532b70;
      }

      .cls-59 {
        clip-path: url(#clippath-1);
      }

      .cls-60 {
        clip-path: url(#clippath-2);
      }

      .cls-61 {
        fill: #47255e;
      }

      .cls-62 {
        fill: #683890;
      }

      .cls-63 {
        fill: #723d9f;
      }

      .cls-64 {
        fill: #7a42aa;
      }

      .cls-65 {
        fill: #6a3993;
      }

      .cls-66 {
        fill: #48255f;
      }

      .cls-67 {
        fill: #6d3a97;
      }

      .cls-68 {
        fill: #67378e;
      }

      .cls-69 {
        fill: #4a2663;
      }

      .cls-70 {
        fill: #8045b3;
      }

      .cls-71 {
        fill: #3f2052;
      }

      .cls-72 {
        fill: #412155;
      }

      .cls-73 {
        fill: #7f45b2;
      }

      .cls-74 {
        fill: #743ea2;
      }

      .cls-75 {
        fill: #381c47;
      }

      .cls-76 {
        fill: #4c2766;
      }

      .cls-77 {
        fill: #6b3994;
      }

      .cls-78 {
        fill: #633488;
      }

      .cls-79 {
        fill: #4d2867;
      }

      .cls-80 {
        fill: #31183e;
      }

      .cls-81 {
        fill: #5f3282;
      }

      .cls-82 {
        fill: #743ea1;
      }

      .cls-83 {
        fill: #381c48;
      }

      .cls-84 {
        fill: #7740a5;
      }

      .cls-85 {
        fill: #623486;
      }

      .cls-86 {
        fill: #603383;
      }

      .cls-87 {
        fill: #7b42ab;
      }

      .cls-88 {
        fill: #44235a;
      }

      .cls-89 {
        fill: #7d43ae;
      }

      .cls-90 {
        fill: #4d2868;
      }

      .cls-91 {
        fill: #402154;
      }

      .cls-92 {
        fill: #582e78;
      }

      .cls-93 {
        fill: #7941a9;
      }

      .cls-94 {
        fill: #4f296b;
      }

      .cls-95 {
        fill: #613385;
      }

      .cls-96 {
        fill: #643589;
      }

      .cls-97 {
        fill: #603384;
      }

      .cls-98 {
        fill: #5d317f;
      }

      .cls-99 {
        fill: #5d3180;
      }

      .cls-100 {
        fill: #713d9d;
      }

      .cls-101 {
        fill: #7941a8;
      }

      .cls-102 {
        fill: #4b2765;
      }

      .cls-103 {
        fill: #4f296a;
      }

      .cls-104 {
        fill: #572e76;
      }

      .cls-105 {
        fill: #6a3892;
      }

      .cls-106 {
        fill: #482560;
      }

      .cls-107 {
        fill: #6f3b9a;
      }

      .cls-108 {
        fill: #331941;
      }

      .cls-109 {
        fill: #703c9c;
      }

      .cls-110 {
        fill: #32193f;
      }

      .cls-111 {
        fill: #733ea0;
      }

      .cls-112 {
        fill: #361b45;
      }

      .cls-113 {
        fill: #351a43;
      }

      .cls-114 {
        fill: #331940;
      }

      .cls-115 {
        fill: #5a2f7b;
      }

      .cls-116 {
        fill: #6e3b98;
      }

      .cls-117 {
        fill: #66368d;
      }

      .cls-118 {
        clip-path: url(#clippath);
      }

      .cls-119 {
        fill: #7f44b1;
      }

      .cls-120 {
        fill: #552c73;
      }

      .cls-121 {
        fill: #723d9e;
      }

      .cls-122 {
        fill: #5c317e;
      }

      .cls-123 {
        fill: #5b307c;
      }

      .cls-124 {
        fill: #763fa4;
      }
    </style>
    <clipPath id="clippath">
      <path id="SVGID" class="cls-1" d="M37.92,44.61L101.39,3.24c2.47-1.61,5.67.5,5.17,3.4l-12.93,74.65c-.41,2.39-3.15,3.58-5.18,2.24l-50.54-33.28c-2.03-1.34-2.02-4.32.01-5.64Z"/>
    </clipPath>
    <clipPath id="clippath-1">
      <ellipse id="SVGID-2" data-name="SVGID" class="cls-1" cx="63.18" cy="66.9" rx="22.75" ry="70.8" transform="translate(-27.44 82.87) rotate(-56.63)"/>
    </clipPath>
    <clipPath id="clippath-2">
      <path id="SVGID-3" data-name="SVGID" class="cls-1" d="M94.93,64.41l7.92-52.37c.4-2.67-2.67-4.69-4.96-3.27l-44.98,27.97C30.3,25.48,11.4,21.94,6.61,29.2c-6.27,9.52,14.07,33.97,45.42,54.61,31.35,20.65,61.85,29.67,68.12,20.15,4.78-7.26-5.94-23.23-25.22-39.56Z"/>
    </clipPath>
  </defs>
  <g id="Layer_1-2" data-name="Layer 1">
    <g>
      <g>
        <g>
          <g class="cls-118">
            <rect class="cls-120" x="63.14" y="32.5" width=".17" height="68.65" transform="translate(-27.36 82.88) rotate(-56.63)"/>
            <rect class="cls-52" x="63.17" y="32.25" width=".44" height="68.65" transform="translate(-27.07 82.9) rotate(-56.63)"/>
            <rect class="cls-34" x="63.41" y="31.88" width=".44" height="68.65" transform="translate(-26.66 82.94) rotate(-56.63)"/>
            <rect class="cls-104" x="63.65" y="31.52" width=".44" height="68.65" transform="translate(-26.24 82.98) rotate(-56.63)"/>
            <rect class="cls-40" x="63.9" y="31.15" width=".44" height="68.65" transform="translate(-25.83 83.01) rotate(-56.63)"/>
            <rect class="cls-92" x="64.14" y="30.78" width=".44" height="68.65" transform="translate(-25.41 83.05) rotate(-56.63)"/>
            <rect class="cls-7" x="64.38" y="30.42" width=".44" height="68.65" transform="translate(-25 83.09) rotate(-56.63)"/>
            <rect class="cls-15" x="64.62" y="30.05" width=".44" height="68.65" transform="translate(-24.58 83.12) rotate(-56.63)"/>
            <rect class="cls-115" x="64.86" y="29.68" width=".44" height="68.65" transform="translate(-24.17 83.16) rotate(-56.63)"/>
            <rect class="cls-123" x="65.1" y="29.32" width=".44" height="68.65" transform="translate(-23.75 83.2) rotate(-56.63)"/>
            <rect class="cls-36" x="65.34" y="28.95" width=".44" height="68.65" transform="translate(-23.34 83.23) rotate(-56.63)"/>
            <rect class="cls-122" x="65.59" y="28.58" width=".44" height="68.65" transform="translate(-22.92 83.27) rotate(-56.63)"/>
            <rect class="cls-98" x="65.83" y="28.22" width=".44" height="68.65" transform="translate(-22.51 83.31) rotate(-56.63)"/>
            <rect class="cls-99" x="66.07" y="27.85" width=".44" height="68.65" transform="translate(-22.09 83.34) rotate(-56.63)"/>
            <rect class="cls-41" x="66.31" y="27.48" width=".44" height="68.65" transform="translate(-21.68 83.38) rotate(-56.63)"/>
            <rect class="cls-81" x="66.55" y="27.12" width=".44" height="68.65" transform="translate(-21.27 83.42) rotate(-56.63)"/>
            <rect class="cls-86" x="66.79" y="26.75" width=".44" height="68.65" transform="translate(-20.85 83.45) rotate(-56.63)"/>
            <rect class="cls-97" x="67.03" y="26.38" width=".44" height="68.65" transform="translate(-20.44 83.49) rotate(-56.63)"/>
            <rect class="cls-95" x="67.28" y="26.02" width=".44" height="68.65" transform="translate(-20.02 83.53) rotate(-56.63)"/>
            <rect class="cls-85" x="67.52" y="25.65" width=".44" height="68.65" transform="translate(-19.61 83.56) rotate(-56.63)"/>
            <rect class="cls-56" x="67.76" y="25.28" width=".44" height="68.65" transform="translate(-19.19 83.6) rotate(-56.63)"/>
            <rect class="cls-78" x="68" y="24.92" width=".44" height="68.65" transform="translate(-18.78 83.64) rotate(-56.63)"/>
            <rect class="cls-96" x="68.24" y="24.55" width=".44" height="68.65" transform="translate(-18.36 83.67) rotate(-56.63)"/>
            <rect class="cls-39" x="68.48" y="24.18" width=".44" height="68.65" transform="translate(-17.95 83.71) rotate(-56.63)"/>
            <rect class="cls-55" x="68.72" y="23.82" width=".44" height="68.65" transform="translate(-17.53 83.75) rotate(-56.63)"/>
            <rect class="cls-10" x="68.96" y="23.45" width=".44" height="68.65" transform="translate(-17.12 83.78) rotate(-56.63)"/>
            <rect class="cls-117" x="69.21" y="23.09" width=".44" height="68.65" transform="translate(-16.7 83.82) rotate(-56.63)"/>
            <rect class="cls-68" x="69.45" y="22.72" width=".44" height="68.65" transform="translate(-16.29 83.86) rotate(-56.63)"/>
            <rect class="cls-38" x="69.69" y="22.35" width=".44" height="68.65" transform="translate(-15.87 83.89) rotate(-56.63)"/>
            <rect class="cls-62" x="69.93" y="21.99" width=".44" height="68.65" transform="translate(-15.46 83.93) rotate(-56.63)"/>
            <rect class="cls-46" x="70.17" y="21.62" width=".44" height="68.65" transform="translate(-15.04 83.97) rotate(-56.63)"/>
            <rect class="cls-105" x="70.41" y="21.25" width=".44" height="68.65" transform="translate(-14.63 84) rotate(-56.63)"/>
            <rect class="cls-65" x="70.65" y="20.89" width=".44" height="68.65" transform="translate(-14.21 84.04) rotate(-56.63)"/>
            <rect class="cls-77" x="70.9" y="20.52" width=".44" height="68.65" transform="translate(-13.8 84.08) rotate(-56.63)"/>
            <rect class="cls-2" x="71.14" y="20.15" width=".44" height="68.65" transform="translate(-13.38 84.11) rotate(-56.63)"/>
            <rect class="cls-47" x="71.38" y="19.79" width=".44" height="68.65" transform="translate(-12.97 84.15) rotate(-56.63)"/>
            <rect class="cls-67" x="71.62" y="19.42" width=".44" height="68.65" transform="translate(-12.56 84.18) rotate(-56.63)"/>
            <rect class="cls-116" x="71.86" y="19.05" width=".44" height="68.65" transform="translate(-12.14 84.22) rotate(-56.63)"/>
            <rect class="cls-9" x="72.1" y="18.69" width=".44" height="68.65" transform="translate(-11.73 84.26) rotate(-56.63)"/>
            <rect class="cls-107" x="72.34" y="18.32" width=".44" height="68.65" transform="translate(-11.31 84.29) rotate(-56.63)"/>
            <rect class="cls-37" x="72.59" y="17.95" width=".44" height="68.65" transform="translate(-10.9 84.33) rotate(-56.63)"/>
            <rect class="cls-109" x="72.83" y="17.59" width=".44" height="68.65" transform="translate(-10.48 84.37) rotate(-56.63)"/>
            <rect class="cls-100" x="73.07" y="17.22" width=".44" height="68.65" transform="translate(-10.07 84.4) rotate(-56.63)"/>
            <rect class="cls-121" x="73.31" y="16.85" width=".44" height="68.65" transform="translate(-9.65 84.44) rotate(-56.63)"/>
            <rect class="cls-63" x="73.55" y="16.49" width=".44" height="68.65" transform="translate(-9.24 84.48) rotate(-56.63)"/>
            <rect class="cls-111" x="73.79" y="16.12" width=".44" height="68.65" transform="translate(-8.82 84.51) rotate(-56.63)"/>
            <rect class="cls-82" x="74.03" y="15.75" width=".44" height="68.65" transform="translate(-8.41 84.55) rotate(-56.63)"/>
            <rect class="cls-74" x="74.28" y="15.39" width=".44" height="68.65" transform="translate(-7.99 84.59) rotate(-56.63)"/>
            <rect class="cls-50" x="74.52" y="15.02" width=".44" height="68.65" transform="translate(-7.58 84.62) rotate(-56.63)"/>
            <rect class="cls-124" x="74.76" y="14.65" width=".44" height="68.65" transform="translate(-7.16 84.66) rotate(-56.63)"/>
            <rect class="cls-84" x="75" y="14.29" width=".44" height="68.65" transform="translate(-6.75 84.7) rotate(-56.63)"/>
            <rect class="cls-30" x="75.24" y="13.92" width=".44" height="68.65" transform="translate(-6.33 84.73) rotate(-56.63)"/>
            <rect class="cls-14" x="75.48" y="13.56" width=".44" height="68.65" transform="translate(-5.92 84.77) rotate(-56.63)"/>
            <rect class="cls-101" x="75.72" y="13.19" width=".44" height="68.65" transform="translate(-5.5 84.81) rotate(-56.63)"/>
            <rect class="cls-93" x="75.96" y="12.82" width=".44" height="68.65" transform="translate(-5.09 84.84) rotate(-56.63)"/>
            <rect class="cls-64" x="76.21" y="12.46" width=".44" height="68.65" transform="translate(-4.68 84.88) rotate(-56.63)"/>
            <rect class="cls-87" x="76.45" y="12.09" width=".44" height="68.65" transform="translate(-4.26 84.92) rotate(-56.63)"/>
            <rect class="cls-31" x="76.69" y="11.72" width=".44" height="68.65" transform="translate(-3.85 84.95) rotate(-56.63)"/>
            <rect class="cls-35" x="76.93" y="11.36" width=".44" height="68.65" transform="translate(-3.43 84.99) rotate(-56.63)"/>
            <rect class="cls-89" x="77.17" y="10.99" width=".44" height="68.65" transform="translate(-3.02 85.03) rotate(-56.63)"/>
            <rect class="cls-11" x="77.41" y="10.62" width=".44" height="68.65" transform="translate(-2.6 85.06) rotate(-56.63)"/>
            <rect class="cls-45" x="77.65" y="10.26" width=".44" height="68.65" transform="translate(-2.19 85.1) rotate(-56.63)"/>
            <rect class="cls-119" x="77.9" y="9.89" width=".44" height="68.65" transform="translate(-1.77 85.14) rotate(-56.63)"/>
            <rect class="cls-73" x="78.14" y="9.52" width=".44" height="68.65" transform="translate(-1.36 85.17) rotate(-56.63)"/>
            <rect class="cls-70" x="78.38" y="9.16" width=".44" height="68.65" transform="translate(-.94 85.21) rotate(-56.63)"/>
            <rect class="cls-70" x="67.78" y="-11.33" width="48.62" height="68.65" transform="translate(22.24 87.26) rotate(-56.63)"/>
          </g>
          <path class="cls-33" d="M86.97,85.78l-50.55-33.28c-1.71-1.13-2.73-3.02-2.72-5.07,0-2.05,1.03-3.94,2.75-5.06L99.93,1c2.05-1.33,4.59-1.33,6.64.02s3.05,3.68,2.64,6.09l-12.93,74.65c-.35,2.02-1.68,3.71-3.56,4.52-1.88.81-4.02.63-5.73-.5ZM103.61,5.49c-.17-.11-.44-.21-.76,0l-63.47,41.37h0c-.26.17-.31.41-.31.58,0,.17.05.41.31.58l50.55,33.28c.26.17.5.12.66.06.16-.07.35-.21.41-.52L103.91,6.19c.06-.37-.13-.58-.3-.7ZM37.92,44.61h.02s-.02,0-.02,0Z"/>
        </g>
        <g>
          <path class="cls-51" d="M74.56,20.77c-.63-2.61-1.92-4.88-3.65-6.69-1.44,4.87-5.36,8.87-10.65,10.15-5.29,1.28-10.61-.48-14.12-4.15-.71,2.4-.82,5.01-.19,7.62,1.91,7.9,9.87,12.75,17.77,10.84,7.9-1.91,12.75-9.87,10.84-17.77Z"/>
          <path class="cls-33" d="M50.69,38.76c-3.55-2.34-6.26-5.97-7.34-10.43-.72-2.97-.64-6.09.22-9.01.27-.92,1.01-1.62,1.94-1.85s1.91.06,2.57.75c2.96,3.1,7.39,4.41,11.55,3.4,4.16-1.01,7.5-4.19,8.71-8.31.27-.92,1.01-1.62,1.94-1.85.93-.22,1.91.06,2.57.75,2.1,2.2,3.6,4.94,4.32,7.91,1.09,4.52.36,9.19-2.06,13.16-2.42,3.97-6.24,6.75-10.76,7.85-4.87,1.18-9.77.17-13.67-2.39ZM48.25,25.08c.05.67.15,1.34.31,1.99,1.56,6.45,8.08,10.43,14.53,8.86,3.13-.76,5.77-2.69,7.44-5.43,1.67-2.74,2.18-5.98,1.42-9.1h0c-.16-.66-.37-1.3-.64-1.91-2.39,3.63-6.11,6.3-10.43,7.35-4.33,1.05-8.85.37-12.64-1.76Z"/>
        </g>
        <g>
          <g class="cls-59">
            <rect class="cls-80" x="50.64" y="15.05" width=".11" height="141.61" transform="translate(-48.9 80.98) rotate(-56.63)"/>
            <rect class="cls-110" x="50.62" y="14.83" width=".44" height="141.61" transform="translate(-48.64 81) rotate(-56.63)"/>
            <rect class="cls-114" x="50.86" y="14.46" width=".44" height="141.61" transform="translate(-48.22 81.03) rotate(-56.63)"/>
            <rect class="cls-108" x="51.1" y="14.09" width=".44" height="141.61" transform="translate(-47.81 81.07) rotate(-56.63)"/>
            <rect class="cls-32" x="51.35" y="13.73" width=".44" height="141.61" transform="translate(-47.39 81.11) rotate(-56.63)"/>
            <rect class="cls-113" x="51.59" y="13.36" width=".44" height="141.61" transform="translate(-46.98 81.14) rotate(-56.63)"/>
            <rect class="cls-44" x="51.83" y="12.99" width=".44" height="141.61" transform="translate(-46.57 81.18) rotate(-56.63)"/>
            <rect class="cls-112" x="52.07" y="12.63" width=".44" height="141.61" transform="translate(-46.15 81.22) rotate(-56.63)"/>
            <rect class="cls-42" x="52.31" y="12.26" width=".44" height="141.61" transform="translate(-45.74 81.25) rotate(-56.63)"/>
            <rect class="cls-75" x="52.55" y="11.9" width=".44" height="141.61" transform="translate(-45.32 81.29) rotate(-56.63)"/>
            <rect class="cls-83" x="52.79" y="11.53" width=".44" height="141.61" transform="translate(-44.91 81.33) rotate(-56.63)"/>
            <rect class="cls-49" x="53.03" y="11.16" width=".44" height="141.61" transform="translate(-44.49 81.36) rotate(-56.63)"/>
            <rect class="cls-19" x="53.28" y="10.8" width=".44" height="141.61" transform="translate(-44.08 81.4) rotate(-56.63)"/>
            <rect class="cls-43" x="53.52" y="10.43" width=".44" height="141.61" transform="translate(-43.66 81.44) rotate(-56.63)"/>
            <rect class="cls-17" x="53.76" y="10.06" width=".44" height="141.61" transform="translate(-43.25 81.47) rotate(-56.63)"/>
            <rect class="cls-23" x="54" y="9.7" width=".44" height="141.61" transform="translate(-42.83 81.51) rotate(-56.63)"/>
            <rect class="cls-4" x="54.24" y="9.33" width=".44" height="141.61" transform="translate(-42.42 81.55) rotate(-56.63)"/>
            <rect class="cls-57" x="54.48" y="8.96" width=".44" height="141.61" transform="translate(-42 81.58) rotate(-56.63)"/>
            <rect class="cls-6" x="54.72" y="8.6" width=".44" height="141.61" transform="translate(-41.59 81.62) rotate(-56.63)"/>
            <rect class="cls-25" x="54.97" y="8.23" width=".44" height="141.61" transform="translate(-41.17 81.66) rotate(-56.63)"/>
            <rect class="cls-71" x="55.21" y="7.86" width=".44" height="141.61" transform="translate(-40.76 81.69) rotate(-56.63)"/>
            <rect class="cls-28" x="55.45" y="7.5" width=".44" height="141.61" transform="translate(-40.34 81.73) rotate(-56.63)"/>
            <rect class="cls-91" x="55.69" y="7.13" width=".44" height="141.61" transform="translate(-39.93 81.77) rotate(-56.63)"/>
            <rect class="cls-72" x="55.93" y="6.76" width=".44" height="141.61" transform="translate(-39.51 81.8) rotate(-56.63)"/>
            <rect class="cls-26" x="56.17" y="6.4" width=".44" height="141.61" transform="translate(-39.1 81.84) rotate(-56.63)"/>
            <rect class="cls-3" x="56.41" y="6.03" width=".44" height="141.61" transform="translate(-38.68 81.88) rotate(-56.63)"/>
            <rect class="cls-21" x="56.66" y="5.66" width=".44" height="141.61" transform="translate(-38.27 81.91) rotate(-56.63)"/>
            <rect class="cls-54" x="56.9" y="5.3" width=".44" height="141.61" transform="translate(-37.86 81.95) rotate(-56.63)"/>
            <rect class="cls-88" x="57.14" y="4.93" width=".44" height="141.61" transform="translate(-37.44 81.99) rotate(-56.63)"/>
            <rect class="cls-29" x="57.38" y="4.56" width=".44" height="141.61" transform="translate(-37.03 82.02) rotate(-56.63)"/>
            <rect class="cls-13" x="57.62" y="4.2" width=".44" height="141.61" transform="translate(-36.61 82.06) rotate(-56.63)"/>
            <rect class="cls-12" x="57.86" y="3.83" width=".44" height="141.61" transform="translate(-36.2 82.1) rotate(-56.63)"/>
            <rect class="cls-61" x="58.1" y="3.46" width=".44" height="141.61" transform="translate(-35.78 82.13) rotate(-56.63)"/>
            <rect class="cls-66" x="58.34" y="3.1" width=".44" height="141.61" transform="translate(-35.37 82.17) rotate(-56.63)"/>
            <rect class="cls-106" x="58.59" y="2.73" width=".44" height="141.61" transform="translate(-34.95 82.21) rotate(-56.63)"/>
            <rect class="cls-5" x="58.83" y="2.37" width=".44" height="141.61" transform="translate(-34.54 82.24) rotate(-56.63)"/>
            <rect class="cls-69" x="59.07" y="2" width=".44" height="141.61" transform="translate(-34.12 82.28) rotate(-56.63)"/>
            <rect class="cls-24" x="59.31" y="1.63" width=".44" height="141.61" transform="translate(-33.71 82.32) rotate(-56.63)"/>
            <rect class="cls-102" x="59.55" y="1.27" width=".44" height="141.61" transform="translate(-33.29 82.35) rotate(-56.63)"/>
            <rect class="cls-76" x="59.79" y=".9" width=".44" height="141.61" transform="translate(-32.88 82.39) rotate(-56.63)"/>
            <rect class="cls-79" x="60.03" y=".53" width=".44" height="141.61" transform="translate(-32.46 82.43) rotate(-56.63)"/>
            <rect class="cls-90" x="60.28" y=".17" width=".44" height="141.61" transform="translate(-32.05 82.46) rotate(-56.63)"/>
            <rect class="cls-48" x="60.52" y="-.2" width=".44" height="141.61" transform="translate(-31.63 82.5) rotate(-56.63)"/>
            <rect class="cls-103" x="60.76" y="-.57" width=".44" height="141.61" transform="translate(-31.22 82.54) rotate(-56.63)"/>
            <rect class="cls-94" x="61" y="-.93" width=".44" height="141.61" transform="translate(-30.8 82.57) rotate(-56.63)"/>
            <rect class="cls-18" x="61.24" y="-1.3" width=".44" height="141.61" transform="translate(-30.39 82.61) rotate(-56.63)"/>
            <rect class="cls-53" x="61.48" y="-1.67" width=".44" height="141.61" transform="translate(-29.97 82.65) rotate(-56.63)"/>
            <rect class="cls-20" x="61.72" y="-2.03" width=".44" height="141.61" transform="translate(-29.56 82.68) rotate(-56.63)"/>
            <rect class="cls-27" x="61.97" y="-2.4" width=".44" height="141.61" transform="translate(-29.15 82.72) rotate(-56.63)"/>
            <rect class="cls-58" x="62.21" y="-2.77" width=".44" height="141.61" transform="translate(-28.73 82.76) rotate(-56.63)"/>
            <rect class="cls-16" x="62.45" y="-3.13" width=".44" height="141.61" transform="translate(-28.32 82.79) rotate(-56.63)"/>
            <rect class="cls-8" x="62.69" y="-3.5" width=".44" height="141.61" transform="translate(-27.9 82.83) rotate(-56.63)"/>
            <rect class="cls-120" x="62.93" y="-3.87" width=".44" height="141.61" transform="translate(-27.49 82.87) rotate(-56.63)"/>
            <rect class="cls-52" x="63.17" y="-4.23" width=".44" height="141.61" transform="translate(-27.07 82.9) rotate(-56.63)"/>
            <rect class="cls-34" x="63.41" y="-4.6" width=".44" height="141.61" transform="translate(-26.66 82.94) rotate(-56.63)"/>
            <rect class="cls-104" x="63.65" y="-4.97" width=".44" height="141.61" transform="translate(-26.24 82.98) rotate(-56.63)"/>
            <rect class="cls-40" x="63.9" y="-5.33" width=".44" height="141.61" transform="translate(-25.83 83.01) rotate(-56.63)"/>
            <rect class="cls-92" x="64.14" y="-5.7" width=".44" height="141.61" transform="translate(-25.41 83.05) rotate(-56.63)"/>
            <rect class="cls-7" x="64.38" y="-6.07" width=".44" height="141.61" transform="translate(-25 83.09) rotate(-56.63)"/>
            <rect class="cls-15" x="64.62" y="-6.43" width=".44" height="141.61" transform="translate(-24.58 83.12) rotate(-56.63)"/>
            <rect class="cls-115" x="64.86" y="-6.8" width=".44" height="141.61" transform="translate(-24.17 83.16) rotate(-56.63)"/>
            <rect class="cls-123" x="65.1" y="-7.17" width=".44" height="141.61" transform="translate(-23.75 83.2) rotate(-56.63)"/>
            <rect class="cls-36" x="65.34" y="-7.53" width=".44" height="141.61" transform="translate(-23.34 83.23) rotate(-56.63)"/>
            <rect class="cls-122" x="65.59" y="-7.9" width=".44" height="141.61" transform="translate(-22.92 83.27) rotate(-56.63)"/>
            <rect class="cls-98" x="65.83" y="-8.26" width=".44" height="141.61" transform="translate(-22.51 83.31) rotate(-56.63)"/>
            <rect class="cls-99" x="66.07" y="-8.63" width=".44" height="141.61" transform="translate(-22.09 83.34) rotate(-56.63)"/>
            <rect class="cls-41" x="66.31" y="-9" width=".44" height="141.61" transform="translate(-21.68 83.38) rotate(-56.63)"/>
            <rect class="cls-81" x="66.55" y="-9.36" width=".44" height="141.61" transform="translate(-21.27 83.42) rotate(-56.63)"/>
            <rect class="cls-86" x="66.79" y="-9.73" width=".44" height="141.61" transform="translate(-20.85 83.45) rotate(-56.63)"/>
            <rect class="cls-97" x="67.03" y="-10.1" width=".44" height="141.61" transform="translate(-20.44 83.49) rotate(-56.63)"/>
            <rect class="cls-95" x="67.28" y="-10.46" width=".44" height="141.61" transform="translate(-20.02 83.53) rotate(-56.63)"/>
            <rect class="cls-85" x="67.52" y="-10.83" width=".44" height="141.61" transform="translate(-19.61 83.56) rotate(-56.63)"/>
            <rect class="cls-56" x="67.76" y="-11.2" width=".44" height="141.61" transform="translate(-19.19 83.6) rotate(-56.63)"/>
            <rect class="cls-78" x="68" y="-11.56" width=".44" height="141.61" transform="translate(-18.78 83.64) rotate(-56.63)"/>
            <rect class="cls-96" x="68.24" y="-11.93" width=".44" height="141.61" transform="translate(-18.36 83.67) rotate(-56.63)"/>
            <rect class="cls-39" x="68.48" y="-12.3" width=".44" height="141.61" transform="translate(-17.95 83.71) rotate(-56.63)"/>
            <rect class="cls-55" x="68.72" y="-12.66" width=".44" height="141.61" transform="translate(-17.53 83.75) rotate(-56.63)"/>
            <rect class="cls-10" x="68.96" y="-13.03" width=".44" height="141.61" transform="translate(-17.12 83.78) rotate(-56.63)"/>
            <rect class="cls-117" x="69.21" y="-13.4" width=".44" height="141.61" transform="translate(-16.7 83.82) rotate(-56.63)"/>
            <rect class="cls-68" x="69.45" y="-13.76" width=".44" height="141.61" transform="translate(-16.29 83.86) rotate(-56.63)"/>
            <rect class="cls-38" x="69.69" y="-14.13" width=".44" height="141.61" transform="translate(-15.87 83.89) rotate(-56.63)"/>
            <rect class="cls-62" x="69.93" y="-14.5" width=".44" height="141.61" transform="translate(-15.46 83.93) rotate(-56.63)"/>
            <rect class="cls-46" x="70.17" y="-14.86" width=".44" height="141.61" transform="translate(-15.04 83.97) rotate(-56.63)"/>
            <rect class="cls-105" x="70.41" y="-15.23" width=".44" height="141.61" transform="translate(-14.63 84) rotate(-56.63)"/>
            <rect class="cls-65" x="70.65" y="-15.6" width=".44" height="141.61" transform="translate(-14.21 84.04) rotate(-56.63)"/>
            <rect class="cls-77" x="70.9" y="-15.96" width=".44" height="141.61" transform="translate(-13.8 84.08) rotate(-56.63)"/>
            <rect class="cls-2" x="71.14" y="-16.33" width=".44" height="141.61" transform="translate(-13.38 84.11) rotate(-56.63)"/>
            <rect class="cls-47" x="71.38" y="-16.7" width=".44" height="141.61" transform="translate(-12.97 84.15) rotate(-56.63)"/>
            <rect class="cls-67" x="71.62" y="-17.06" width=".44" height="141.61" transform="translate(-12.56 84.18) rotate(-56.63)"/>
            <rect class="cls-116" x="71.86" y="-17.43" width=".44" height="141.61" transform="translate(-12.14 84.22) rotate(-56.63)"/>
            <rect class="cls-9" x="72.1" y="-17.79" width=".44" height="141.61" transform="translate(-11.73 84.26) rotate(-56.63)"/>
            <rect class="cls-107" x="72.34" y="-18.16" width=".44" height="141.61" transform="translate(-11.31 84.29) rotate(-56.63)"/>
            <rect class="cls-37" x="72.59" y="-18.53" width=".44" height="141.61" transform="translate(-10.9 84.33) rotate(-56.63)"/>
            <rect class="cls-109" x="72.83" y="-18.89" width=".44" height="141.61" transform="translate(-10.48 84.37) rotate(-56.63)"/>
            <rect class="cls-100" x="73.07" y="-19.26" width=".44" height="141.61" transform="translate(-10.07 84.4) rotate(-56.63)"/>
            <rect class="cls-121" x="73.31" y="-19.63" width=".44" height="141.61" transform="translate(-9.65 84.44) rotate(-56.63)"/>
            <rect class="cls-63" x="73.55" y="-19.99" width=".44" height="141.61" transform="translate(-9.24 84.48) rotate(-56.63)"/>
            <rect class="cls-111" x="73.79" y="-20.36" width=".44" height="141.61" transform="translate(-8.82 84.51) rotate(-56.63)"/>
            <rect class="cls-82" x="74.03" y="-20.73" width=".44" height="141.61" transform="translate(-8.41 84.55) rotate(-56.63)"/>
            <rect class="cls-74" x="74.28" y="-21.09" width=".44" height="141.61" transform="translate(-7.99 84.59) rotate(-56.63)"/>
            <rect class="cls-50" x="74.52" y="-21.46" width=".44" height="141.61" transform="translate(-7.58 84.62) rotate(-56.63)"/>
            <rect class="cls-124" x="74.76" y="-21.83" width=".44" height="141.61" transform="translate(-7.16 84.66) rotate(-56.63)"/>
            <rect class="cls-84" x="75" y="-22.19" width=".44" height="141.61" transform="translate(-6.75 84.7) rotate(-56.63)"/>
            <rect class="cls-30" x="75.24" y="-22.56" width=".44" height="141.61" transform="translate(-6.33 84.73) rotate(-56.63)"/>
            <rect class="cls-14" x="75.54" y="-22.83" width=".2" height="141.61" transform="translate(-6.03 84.76) rotate(-56.63)"/>
          </g>
          <path class="cls-33" d="M49.19,88.14C19.44,68.55-7.28,40.28,1.8,26.48c9.09-13.8,45.61-.42,75.36,19.17,29.75,19.59,56.47,47.86,47.39,61.66-9.09,13.8-45.61.42-75.36-19.17ZM74.22,50.13C40.69,28.06,11.5,21.5,6.28,29.43s12.33,32.15,45.86,54.23c33.53,22.08,62.71,28.63,67.94,20.7,5.22-7.93-12.33-32.15-45.86-54.23Z"/>
        </g>
        <g class="cls-60">
          <path class="cls-22" d="M106.4,10.76h0c-3.27,4.96-9.94,6.33-14.9,3.07,4.96,3.27,6.33,9.94,3.07,14.9h0c3.27-4.96,9.94-6.33,14.9-3.07-4.96-3.27-6.33-9.94-3.07-14.9ZM98.1,23.36c1.31-2,.76-4.68-1.23-5.99,2,1.31,4.68.76,5.99-1.23-1.31,2-.76,4.68,1.23,5.99-2-1.31-4.68-.76-5.99,1.23Z"/>
          <path class="cls-22" d="M85.63,32.81h0c-2.29,3.47-6.96,4.44-10.43,2.15,3.47,2.29,4.44,6.96,2.15,10.43h0c2.29-3.47,6.96-4.44,10.43-2.15-3.47-2.29-4.44-6.96-2.15-10.43ZM79.82,41.63c.92-1.4.53-3.28-.86-4.2,1.4.92,3.28.53,4.2-.86-.92,1.4-.53,3.28.86,4.2-1.4-.92-3.28-.53-4.2.86Z"/>
          <path class="cls-22" d="M66.03,47.1h0c-1.48,2.25-4.5,2.87-6.75,1.39,2.25,1.48,2.87,4.5,1.39,6.75h0c1.48-2.25,4.5-2.87,6.75-1.39-2.25-1.48-2.87-4.5-1.39-6.75ZM62.28,52.81c.6-.9.35-2.12-.56-2.72.9.6,2.12.35,2.72-.56-.6.9-.35,2.12.56,2.72-.9-.6-2.12-.35-2.72.56Z"/>
          <path class="cls-22" d="M110.93,84.98h0c-1.79,2.72-5.45,3.48-8.17,1.68,2.72,1.79,3.48,5.45,1.68,8.17h0c1.79-2.72,5.45-3.48,8.17-1.68-2.72-1.79-3.48-5.45-1.68-8.17ZM106.38,91.89c.72-1.1.42-2.57-.68-3.29,1.1.72,2.57.42,3.29-.68-.72,1.1-.42,2.57.68,3.29-1.1-.72-2.57-.42-3.29.68Z"/>
          <path class="cls-22" d="M16.47,28.64h0c-3.27,4.96-9.94,6.33-14.9,3.07,4.96,3.27,6.33,9.94,3.07,14.9h0c3.27-4.96,9.94-6.33,14.9-3.07-4.96-3.27-6.33-9.94-3.07-14.9ZM8.17,41.24c1.31-2,.76-4.68-1.23-5.99,2,1.31,4.68.76,5.99-1.23-1.31,2-.76,4.68,1.23,5.99-2-1.31-4.68-.76-5.99,1.23Z"/>
          <path class="cls-22" d="M28.42,37.92h0c1.31-2,.76-4.68-1.23-5.99h0c2,1.31,4.68.76,5.99-1.23h0c-1.31,2-.76,4.68,1.23,5.99h0c-2-1.31-4.68-.76-5.99,1.23Z"/>
          <path class="cls-22" d="M90.94,41.22h0c1.31-2,.76-4.68-1.23-5.99h0c2,1.31,4.68.76,5.99-1.23h0c-1.31,2-.76,4.68,1.23,5.99h0c-2-1.31-4.68-.76-5.99,1.23Z"/>
          <path class="cls-22" d="M84.16,24.78h0c1.31-2,.76-4.68-1.23-5.99h0c2,1.31,4.68.76,5.99-1.23h0c-1.31,2-.76,4.68,1.23,5.99h0c-2-1.31-4.68-.76-5.99,1.23Z"/>
          <path class="cls-22" d="M40.74,51.65h0c1.31-2,.76-4.68-1.23-5.99h0c2,1.31,4.68.76,5.99-1.23h0c-1.31,2-.76,4.68,1.23,5.99h0c-2-1.31-4.68-.76-5.99,1.23Z"/>
          <path class="cls-22" d="M83.52,71.28h0c1.31-2,.76-4.68-1.23-5.99h0c2,1.31,4.68.76,5.99-1.23h0c-1.31,2-.76,4.68,1.23,5.99h0c-2-1.31-4.68-.76-5.99,1.23Z"/>
          <path class="cls-22" d="M87,103.15h0c1.31-2,.76-4.68-1.23-5.99h0c2,1.31,4.68.76,5.99-1.23h0c-1.31,2-.76,4.68,1.23,5.99h0c-2-1.31-4.68-.76-5.99,1.23Z"/>
        </g>
      </g>
      <ellipse class="cls-33" cx="63.03" cy="67.12" rx="9.46" ry="32.74" transform="translate(-27.69 82.85) rotate(-56.63)"/>
    </g>
  </g>
</svg>